<svg version="1.1" id="Layer_1" xmlns="http://www.w3.org/2000/svg" xmlns:xlink="http://www.w3.org/1999/xlink" x="0px" y="0px"
	 width="100%" viewBox="0 0 2000 463" enable-background="new 0 0 2000 463" xml:space="preserve">
<path fill="#4C6971" opacity="1.000000" stroke="none" 
	d="
M1345.000000,464.000000 
	C896.666687,464.000000 448.833344,464.000000 1.000000,464.000000 
	C1.000000,309.666656 1.000000,155.333328 1.000000,1.000000 
	C667.666687,1.000000 1334.333374,1.000000 2001.000000,1.000000 
	C2001.000000,155.333328 2001.000000,309.666656 2001.000000,464.000000 
	C1782.500000,464.000000 1564.000000,464.000000 1345.000000,464.000000 
M1424.511719,42.112579 
	C1424.343384,42.423988 1424.175171,42.735397 1424.061890,43.056168 
	C1424.061890,43.056168 1424.049072,43.001831 1423.452515,43.142612 
	C1422.969482,43.774120 1422.486450,44.405624 1422.053223,45.048500 
	C1422.053223,45.048500 1422.041626,44.998608 1421.400391,45.215828 
	C1421.130615,45.828903 1420.860962,46.441982 1420.160278,47.524494 
	C1418.952881,49.072372 1417.704712,50.590420 1416.544067,52.172649 
	C1403.683228,69.705620 1395.362915,88.991692 1393.251221,111.476463 
	C1393.171875,121.216454 1393.064697,130.956421 1393.060303,140.696487 
	C1393.059937,141.566010 1393.726196,142.435837 1394.061157,144.147751 
	C1394.061279,145.646225 1393.820557,147.190796 1394.097168,148.636337 
	C1399.129761,174.931808 1410.786621,197.472397 1430.955444,215.568848 
	C1455.326416,237.435745 1483.646606,246.183563 1516.020020,243.062454 
	C1532.676636,241.456604 1547.977295,235.792847 1562.012207,227.171570 
	C1577.964722,217.372360 1591.612793,204.994431 1601.180054,188.429871 
	C1608.895996,175.070786 1615.014893,161.277771 1617.056885,145.858414 
	C1617.503662,142.485428 1618.423218,139.175079 1619.772583,135.324127 
	C1619.846191,129.858017 1620.051392,124.389343 1619.945190,118.926735 
	C1619.879761,115.558464 1619.339600,112.199417 1618.608887,108.151558 
	C1616.368774,90.284157 1610.885986,73.585106 1601.569092,58.059162 
	C1587.079956,33.913967 1565.658447,19.136871 1539.197021,11.093738 
	C1532.991455,9.207527 1526.485962,8.308601 1519.563477,6.283900 
	C1514.486694,6.193319 1509.406982,5.961558 1504.333984,6.060799 
	C1500.836182,6.129222 1497.347534,6.655833 1493.067871,7.094103 
	C1489.054565,7.887563 1485.006958,8.539657 1481.033691,9.498826 
	C1463.448364,13.744127 1447.957764,22.115891 1433.448975,33.908432 
	C1432.630371,34.621475 1431.811646,35.334522 1431.053345,36.058681 
	C1431.053345,36.058681 1431.046387,35.997837 1430.503418,36.115864 
	C1430.331665,36.427464 1430.159912,36.739063 1430.054932,37.053093 
	C1430.054932,37.053093 1430.049927,36.986477 1429.513916,37.123894 
	C1429.339233,37.433464 1429.164429,37.743031 1429.056274,38.056751 
	C1429.056274,38.056751 1429.052734,37.990135 1428.514404,38.123291 
	C1428.338257,38.432911 1428.162109,38.742531 1428.054321,39.054337 
	C1428.054321,39.054337 1428.052124,38.985950 1427.513916,39.122150 
	C1427.337158,39.432091 1427.160522,39.742031 1427.052979,40.053200 
	C1427.052979,40.053200 1427.052002,39.983871 1426.513550,40.121098 
	C1426.335571,40.430714 1426.157593,40.740330 1426.049927,41.051071 
	C1426.049927,41.051071 1426.050537,40.980770 1425.508789,41.114468 
	C1425.331665,41.425777 1425.154419,41.737083 1425.048218,42.048298 
	C1425.048218,42.048298 1425.048340,41.977322 1424.511719,42.112579 
M385.997559,56.999672 
	C385.997559,56.999672 386.028473,56.981186 386.143463,57.517365 
	C386.430145,57.736492 386.716797,57.955616 387.304321,58.772221 
	C401.992218,78.409355 416.688599,98.040123 431.366058,117.685074 
	C455.594360,150.113327 479.789734,182.566208 504.048859,214.971390 
	C508.979858,221.558212 513.890320,228.188614 519.268616,234.402191 
	C522.682251,238.346039 527.567505,239.394592 532.295654,236.856659 
	C534.261902,235.801208 536.451416,233.345947 536.723206,231.287430 
	C537.562317,224.931610 537.526794,218.460266 537.967224,211.100525 
	C537.981140,196.801651 538.020264,182.502731 538.004150,168.203888 
	C537.960327,129.298737 537.893066,90.393608 537.935791,50.550808 
	C538.693176,45.859173 538.389099,40.627285 540.441528,36.594864 
	C544.068726,29.468586 551.182251,27.791542 558.874084,27.951246 
	C567.933289,28.139339 570.367249,24.982912 567.610046,16.581568 
	C567.117432,15.080617 564.833862,13.240543 563.300781,13.167692 
	C556.509949,12.844995 549.691223,13.109730 541.974976,13.040645 
	C533.037842,13.080981 524.100708,13.121318 514.211426,13.049780 
	C508.216980,13.032853 502.222534,12.997967 496.228119,13.004342 
	C490.851624,13.010060 488.199799,15.120687 488.075409,19.426249 
	C487.927246,24.554329 490.985992,27.803761 496.192963,27.988308 
	C498.022461,28.053152 499.857666,27.952225 501.687469,28.012409 
	C510.920044,28.316074 517.061523,33.268017 518.886475,41.911297 
	C519.389526,44.293591 519.739075,46.708282 520.053223,50.018093 
	C520.090576,64.672821 520.127930,79.327545 520.049988,94.915604 
	C520.028809,118.638969 519.997803,142.362335 520.013550,166.085693 
	C520.014404,167.357361 520.408691,168.628784 520.909119,170.661194 
	C520.831909,172.031296 520.754700,173.401413 520.638489,175.463608 
	C518.719849,173.710083 517.217773,172.698746 516.179504,171.334396 
	C499.075378,148.859344 482.080841,126.300835 464.956757,103.841049 
	C447.136505,80.468208 429.457977,56.979553 411.199463,33.952255 
	C403.531250,24.281277 393.463043,17.392042 380.941162,14.893617 
	C376.320343,13.971658 371.722168,12.936473 366.558746,11.282721 
	C360.402435,11.192045 354.244720,10.983299 348.090393,11.057424 
	C344.698425,11.098276 341.312225,11.614307 337.262177,12.273948 
	C332.471588,17.803101 334.268585,24.308268 341.068695,26.106445 
	C341.851166,26.313347 342.572845,26.787750 343.360443,26.931894 
	C354.615875,28.991787 365.094910,32.009525 367.050568,46.691330 
	C367.089325,74.818459 367.128082,102.945595 367.049347,131.988129 
	C367.086395,148.273865 367.123444,164.559616 367.060913,181.767471 
	C366.707947,189.336624 366.429840,196.910187 365.982391,204.473755 
	C365.462524,213.261658 360.285065,219.999847 352.444183,221.694016 
	C348.617584,222.520813 344.611908,222.484848 340.718597,223.053772 
	C339.201996,223.275406 336.963562,223.668945 336.432190,224.696762 
	C332.827240,231.669571 337.782318,239.153671 343.665527,238.023651 
	C346.391846,237.499969 349.166779,237.229340 352.684418,236.941406 
	C368.177795,236.908417 383.671173,236.875427 400.096313,236.963547 
	C409.722961,239.174896 412.046753,238.252045 414.130829,234.408737 
	C417.303131,228.558594 414.701691,223.333313 408.327240,222.951584 
	C404.581665,222.727310 400.779999,222.398483 397.150421,221.513977 
	C391.312531,220.091293 384.565857,213.930618 384.927917,201.141510 
	C384.895721,181.413132 384.863495,161.684769 384.898499,141.118256 
	C384.547485,137.245728 384.196472,133.373215 383.959625,128.673050 
	C383.972900,106.297264 383.962891,83.921387 384.041870,61.545830 
	C384.048492,59.677479 384.654938,57.811245 384.987274,56.016777 
	C384.987274,56.016777 385.060028,56.012272 385.150116,56.516983 
	C385.440582,56.668606 385.731079,56.820229 385.997559,56.999672 
M1268.776245,15.954517 
	C1268.603760,16.007307 1268.462402,16.105078 1268.098022,17.172138 
	C1267.815308,26.580147 1269.214111,27.992645 1278.822021,28.000107 
	C1279.819580,28.000881 1280.818237,27.970724 1281.814697,28.003647 
	C1290.772705,28.299604 1297.060303,33.472660 1298.930420,42.050518 
	C1299.310303,43.792629 1299.752197,45.521248 1300.059692,48.146397 
	C1300.022461,71.113342 1299.985229,94.080292 1300.024780,117.060112 
	C1300.024780,117.060112 1300.037964,116.983246 1299.095459,116.995544 
	C1262.716309,116.987686 1226.337280,116.979828 1189.968506,117.054375 
	C1189.968506,117.054375 1190.050903,117.044098 1190.013794,116.100967 
	C1189.955200,94.356812 1189.896484,72.612663 1190.171875,50.249062 
	C1189.425171,41.658524 1191.616943,34.048885 1199.849121,30.311897 
	C1204.118164,28.373997 1209.396484,28.351751 1214.251099,28.109138 
	C1218.104004,27.916588 1220.286865,26.531555 1220.672852,22.716082 
	C1220.870605,20.759806 1220.789307,18.775316 1220.944336,16.142326 
	C1220.616577,15.413649 1220.288818,14.684970 1219.962036,14.037284 
	C1219.962036,14.037284 1220.042969,14.036414 1219.887329,13.504384 
	C1219.577881,13.325789 1219.268433,13.147195 1218.962646,13.046113 
	C1218.962646,13.046113 1219.040161,13.042662 1218.591553,12.292493 
	C1210.416260,12.421274 1202.240845,12.550055 1193.396973,12.964958 
	C1193.163330,13.029990 1192.929810,13.095023 1191.819702,13.036558 
	C1178.999634,13.077312 1166.179443,13.118067 1152.594360,13.034059 
	C1152.079834,12.986566 1151.565430,12.939073 1150.498779,12.232970 
	C1142.323486,12.443669 1134.148315,12.654367 1125.335205,13.204910 
	C1122.040283,16.187054 1121.307373,19.714884 1123.089355,23.774500 
	C1124.764160,27.590080 1128.044067,28.133192 1131.673828,28.008490 
	C1133.160156,27.957428 1134.652344,27.938950 1136.137085,28.009100 
	C1145.071167,28.431200 1151.247070,33.679794 1152.963745,42.216732 
	C1153.277222,43.775455 1153.757690,45.300571 1154.058228,47.801559 
	C1154.038696,70.800735 1153.989136,93.799927 1154.007080,116.799072 
	C1154.029541,145.462830 1154.107788,174.126556 1153.887939,203.550659 
	C1153.589233,204.638641 1153.185669,205.709885 1153.008667,206.817337 
	C1151.757202,214.654205 1146.944946,220.125244 1139.343140,221.737030 
	C1135.812134,222.485703 1132.154785,222.721497 1128.539551,222.968613 
	C1123.695068,223.299744 1121.043701,226.796265 1122.274658,231.501587 
	C1123.719971,237.025970 1127.635742,240.000717 1138.400146,236.938828 
	C1159.968872,236.907120 1181.537476,236.875427 1204.052612,236.959900 
	C1206.654297,237.306671 1209.251709,237.908386 1211.858521,237.952560 
	C1219.786133,238.087006 1223.312500,232.761185 1220.106201,225.483490 
	C1219.641968,224.430069 1218.245117,223.278519 1217.137085,223.109619 
	C1213.237671,222.515228 1209.172363,222.761536 1205.370605,221.851288 
	C1202.354370,221.129074 1199.377319,219.535080 1196.828613,217.706711 
	C1190.294434,213.019211 1189.883667,205.852371 1189.939941,197.782623 
	C1189.939941,176.349899 1189.939941,154.917160 1189.939941,133.291321 
	C1226.922729,133.291321 1263.161621,133.291321 1300.165161,133.291321 
	C1300.165161,156.516953 1300.165161,179.459366 1299.581909,203.039917 
	C1299.390503,203.991882 1299.119141,204.935669 1299.020874,205.897171 
	C1298.408691,211.885696 1294.972168,219.462677 1287.213135,221.000732 
	C1282.583496,221.918472 1277.831177,222.209610 1273.190674,223.083801 
	C1271.669556,223.370346 1269.714111,224.249588 1269.007446,225.467224 
	C1265.678223,231.203842 1269.622314,238.042648 1276.151611,237.941299 
	C1279.567749,237.888290 1282.974487,237.234314 1287.041016,236.938034 
	C1308.857544,236.905289 1330.673950,236.872543 1353.360107,236.963455 
	C1357.447021,238.439911 1362.085938,239.358902 1364.656860,235.382828 
	C1366.330933,232.793884 1365.855957,228.713821 1365.956543,225.290390 
	C1365.978027,224.560577 1364.416992,223.314972 1363.421875,223.113388 
	C1360.530151,222.527649 1357.560791,222.294998 1354.612793,222.023941 
	C1341.667114,220.833817 1336.523193,215.527267 1335.928711,201.720490 
	C1335.953003,185.089035 1336.010132,168.457550 1335.994873,151.826126 
	C1335.962891,116.901329 1335.892822,81.976562 1335.936523,46.263996 
	C1336.139893,38.399399 1340.291748,31.636988 1346.795532,29.755127 
	C1350.648560,28.640253 1354.782227,28.317791 1358.817017,28.048473 
	C1365.779175,27.583771 1369.276855,21.344559 1365.707397,15.342270 
	C1365.208496,14.503562 1364.463013,13.811488 1363.437012,12.303009 
	C1355.275879,12.496294 1347.114868,12.689579 1338.185303,12.980993 
	C1337.672729,13.040240 1337.160156,13.099488 1335.780151,13.035886 
	C1322.955811,13.077329 1310.131348,13.118771 1296.553223,13.033491 
	C1296.046265,12.983890 1295.539185,12.934287 1294.471680,12.239736 
	C1290.318848,12.160604 1286.160645,11.918648 1282.014648,12.050941 
	C1278.321411,12.168788 1274.641357,12.700823 1271.047241,13.059139 
	C1271.047241,13.059139 1271.056519,12.967488 1270.510986,13.112225 
	C1270.328979,13.426641 1270.146973,13.741057 1270.055542,14.051664 
	C1270.055542,14.051664 1270.052002,13.961143 1269.453369,14.198077 
	C1269.274780,14.805351 1269.096191,15.412624 1269.019287,16.052992 
	C1269.019287,16.052992 1269.052368,15.951314 1268.776245,15.954517 
M751.054016,14.050585 
	C751.054016,14.050585 751.050842,13.963302 750.460754,14.184304 
	C750.271362,14.771755 750.081970,15.359205 749.272461,16.471989 
	C748.436768,26.177343 750.068237,27.986238 759.671265,28.001152 
	C760.837952,28.002962 762.010254,27.929228 763.170349,28.017517 
	C770.471375,28.573170 776.093323,31.537573 778.456726,38.963722 
	C779.135071,41.095306 779.597473,43.295631 780.071899,46.327908 
	C780.043640,61.086605 779.989807,75.845345 780.016052,90.603943 
	C780.019775,92.703903 780.411865,94.803162 780.911438,97.808449 
	C780.992737,100.683289 781.074036,103.558128 781.041992,107.274574 
	C781.027222,128.095001 781.035828,148.915527 780.953918,169.735687 
	C780.947266,171.424820 780.321838,173.111526 779.503845,174.332413 
	C769.221313,160.935318 758.930237,147.544846 748.658020,134.139832 
	C723.506836,101.317802 698.361450,68.491364 673.220459,35.661507 
	C666.106995,26.372520 656.988098,19.748859 645.918640,16.167864 
	C640.066711,14.274744 633.870850,13.444554 627.504822,11.336893 
	C618.820374,11.223543 610.136108,11.070019 601.451416,11.044707 
	C600.289307,11.041319 599.125366,11.686273 598.029663,12.037279 
	C598.029663,12.037279 598.030212,11.969542 597.514404,12.103322 
	C597.308960,12.383299 597.103455,12.663276 596.275208,13.395407 
	C592.970703,21.223530 595.074524,25.222948 603.354980,26.938503 
	C606.555847,27.601656 609.813538,28.118441 612.914368,29.111019 
	C620.208557,31.445910 626.247437,35.470276 626.779846,43.863544 
	C627.438477,54.247963 627.386536,64.677452 627.146179,75.740036 
	C627.154663,117.635902 627.163208,159.531769 626.580566,202.072601 
	C623.432312,218.542099 623.155029,218.780945 605.967102,222.190002 
	C602.986633,222.781174 599.178650,222.848984 597.392273,224.722061 
	C595.803101,226.388367 595.559631,230.560577 596.447876,232.997849 
	C597.220886,235.118713 600.235229,237.351486 602.565613,237.752228 
	C605.835022,238.314468 609.388367,237.225433 613.599243,236.943542 
	C629.059448,236.910233 644.519653,236.876907 660.910339,237.030167 
	C665.217773,236.837540 670.708862,238.201447 673.530884,236.055450 
	C677.002563,233.415497 676.997498,227.820892 674.072815,223.340042 
	C669.703552,222.895355 665.186279,222.857651 660.890320,221.863556 
	C657.513000,221.082001 653.972046,219.679352 651.270386,217.570465 
	C644.800903,212.520477 644.994568,204.927261 644.949890,196.758652 
	C644.911133,181.840057 644.872375,166.921463 644.948730,151.071381 
	C644.972168,121.289726 644.980713,91.508041 645.053711,61.726505 
	C645.058411,59.815342 645.561157,57.905396 646.149170,56.617737 
	C646.574524,57.318893 646.942444,58.063316 647.433533,58.714962 
	C667.122131,84.840157 686.897705,110.900276 706.500916,137.089340 
	C730.446472,169.079514 754.228394,201.192200 778.130615,233.214859 
	C782.732239,239.379730 791.810608,239.590240 797.690186,233.471954 
	C797.737305,205.619141 797.784424,177.766312 797.950256,149.001190 
	C797.914124,126.421867 797.877991,103.842537 797.939209,80.313194 
	C798.075378,76.849121 798.211548,73.385048 798.849915,69.270943 
	C798.846497,61.334152 798.843079,53.397362 799.296936,44.907967 
	C799.636353,42.386562 799.389832,39.589020 800.423767,37.394871 
	C803.693359,30.456306 809.859131,28.176527 817.142822,27.958591 
	C819.908630,27.875837 823.225281,28.130507 825.255676,26.730356 
	C827.205750,25.385567 828.808228,22.080137 828.763123,19.669968 
	C828.707642,16.705164 827.897827,12.888190 823.187500,12.984245 
	C816.695190,13.116642 810.200073,13.108077 802.827454,13.037084 
	C793.646362,13.078115 784.465332,13.119145 774.656677,12.999735 
	C774.448853,12.941210 774.240967,12.882685 773.463501,12.192068 
	C766.294678,12.476968 759.125793,12.761867 752.044800,13.053762 
	C752.044800,13.053762 752.051880,12.965894 751.507812,13.111205 
	C751.327515,13.425453 751.147156,13.739701 751.054016,14.050585 
M1884.054199,14.049239 
	C1884.054199,14.049239 1884.049316,13.963005 1883.462036,14.180449 
	C1883.355957,14.972842 1883.249878,15.765235 1882.505371,17.128519 
	C1881.147705,25.458130 1883.162842,27.977491 1891.203613,28.000465 
	C1893.370239,28.006655 1895.549194,27.859682 1897.701172,28.039263 
	C1906.574341,28.779655 1909.355103,31.891724 1907.251099,39.385235 
	C1901.493286,59.891510 1895.566406,80.351051 1889.588013,100.794418 
	C1884.114868,119.510162 1878.518188,138.190063 1872.910522,156.866150 
	C1870.794922,163.912628 1868.495972,170.904083 1866.041260,178.678268 
	C1865.419312,177.325668 1865.181641,176.903809 1865.024292,176.453918 
	C1851.312500,137.242371 1837.623535,98.022881 1823.892334,58.818157 
	C1819.062988,45.029999 1814.199463,31.252558 1809.145752,17.546162 
	C1808.613770,16.103447 1806.753540,14.269824 1805.394165,14.168709 
	C1800.110352,13.775615 1794.779785,14.008587 1789.187744,14.008587 
	C1774.907959,68.517998 1760.705322,122.733292 1746.257324,177.885437 
	C1745.088501,176.214722 1744.332031,175.532547 1744.066284,174.694733 
	C1738.363037,156.710938 1732.716309,138.709183 1727.055054,120.712029 
	C1718.983154,95.051598 1711.340576,69.244255 1702.634155,43.800903 
	C1698.862549,32.779163 1691.829224,23.324993 1680.587036,18.338379 
	C1667.472412,12.521248 1653.519043,11.437917 1639.380859,12.042059 
	C1635.203003,12.220584 1633.041260,14.118603 1632.858887,18.848522 
	C1632.619751,25.050312 1636.390381,26.231102 1641.058105,27.006786 
	C1650.997437,28.658539 1659.167480,33.008324 1663.741089,42.455208 
	C1666.029419,47.181572 1668.384644,51.941853 1669.999023,56.917343 
	C1680.120972,88.114021 1690.049683,119.373482 1700.027954,150.616730 
	C1704.518311,164.676346 1708.886597,178.775543 1713.472778,192.803665 
	C1717.892578,206.323334 1722.521729,219.774582 1727.017456,233.959030 
	C1727.346802,234.986496 1727.676025,236.013962 1728.018921,236.980835 
	C1728.018921,236.980835 1727.956909,236.984573 1728.007324,237.851913 
	C1728.186401,238.449890 1728.377930,239.573654 1728.542725,239.569748 
	C1734.307617,239.433075 1740.069824,239.190277 1745.965576,238.274826 
	C1746.475342,237.326675 1747.208740,236.434097 1747.460449,235.421799 
	C1749.936523,225.462051 1752.290894,215.472076 1754.764893,205.511856 
	C1756.490601,198.564346 1758.280396,191.630966 1760.170166,184.726456 
	C1761.764282,178.902008 1763.623535,173.150269 1765.222534,167.327072 
	C1767.895996,157.591171 1770.461182,147.825546 1773.060913,138.069458 
	C1775.041870,130.635437 1777.002563,123.195992 1778.978394,115.760567 
	C1780.662109,109.424393 1782.307739,103.077568 1784.055542,96.759018 
	C1786.209229,88.972343 1788.451172,81.210083 1791.039429,72.081459 
	C1797.393799,90.677315 1803.219238,107.701180 1809.028687,124.730530 
	C1821.637207,161.690720 1834.207886,198.663940 1846.935059,235.583252 
	C1847.522583,237.287735 1849.421021,239.680618 1850.818481,239.757233 
	C1855.487305,240.013214 1860.207520,239.382019 1864.900879,239.002579 
	C1865.172119,238.980637 1865.456543,238.201660 1865.605469,237.733826 
	C1866.799683,233.981491 1867.980347,230.224579 1869.132446,226.459061 
	C1872.686035,214.842606 1876.218750,203.219696 1879.772217,191.603195 
	C1882.879639,181.444458 1886.004883,171.291214 1889.121094,161.135193 
	C1892.638672,149.670914 1896.141235,138.202057 1899.675659,126.742958 
	C1902.803833,116.600792 1905.990356,106.476608 1909.106079,96.330635 
	C1911.446899,88.707558 1913.721436,81.064072 1916.016357,73.426949 
	C1918.033081,66.715080 1920.083374,60.012840 1922.035889,53.282276 
	C1925.154297,42.532253 1930.318481,33.315125 1941.928101,30.207666 
	C1947.573486,28.696602 1953.611938,28.609407 1959.486328,28.013451 
	C1964.514526,27.503332 1966.189697,25.187923 1966.025757,19.075874 
	C1965.905273,14.578201 1964.112915,12.585599 1959.316650,12.911262 
	C1953.177368,13.328122 1946.994873,13.107434 1939.932739,13.041499 
	C1930.343140,13.081509 1920.753662,13.121519 1910.463989,13.048914 
	C1909.994019,12.999909 1909.524170,12.950905 1908.501831,12.242509 
	C1904.100830,12.161677 1899.695312,11.924063 1895.300293,12.050107 
	C1891.844849,12.149203 1888.402344,12.697231 1885.044312,13.053851 
	C1885.044312,13.053851 1885.052490,12.963615 1884.511108,13.114226 
	C1884.330078,13.427588 1884.149048,13.740949 1884.054199,14.049239 
M235.400208,14.228338 
	C235.266647,15.096747 235.133087,15.965157 234.388412,17.242250 
	C211.745834,73.124809 189.103271,129.007370 165.930573,186.198318 
	C164.752472,182.927551 164.151367,180.834152 163.266052,178.868774 
	C156.866821,164.662582 150.326904,150.519302 143.993500,136.284042 
	C136.689987,119.868324 129.657959,103.331490 122.311012,86.935547 
	C116.071304,73.010612 108.893394,59.469521 103.327042,45.288952 
	C96.795448,28.649412 84.682137,19.393942 68.067528,15.051898 
	C63.068409,13.745436 57.924137,12.994386 52.418514,11.263951 
	C46.628235,11.179814 40.836071,10.969961 35.048359,11.056828 
	C31.342522,11.112450 27.643259,11.606042 23.273943,12.263897 
	C18.380184,17.927099 20.234442,24.330780 27.295553,26.123032 
	C28.555679,26.442879 29.826323,26.726486 31.100794,26.983797 
	C41.846283,29.153276 51.709862,32.314152 52.523849,45.803501 
	C52.539394,46.061081 52.944828,46.295132 53.053520,47.386967 
	C53.091370,66.283211 53.129219,85.179459 53.047623,104.990303 
	C53.083572,121.856300 53.119518,138.722290 53.056702,156.510910 
	C52.983051,158.659988 52.909397,160.809067 52.181164,163.510971 
	C52.176582,177.272079 52.171997,191.033188 51.895748,205.547180 
	C51.616497,206.131180 51.175789,206.690582 51.082493,207.302917 
	C49.900166,215.063034 45.580795,220.227112 38.363194,221.721527 
	C34.526421,222.515930 30.526638,222.490891 26.632391,223.055939 
	C25.118160,223.275635 22.554771,223.911560 22.425617,224.684692 
	C21.911488,227.762253 21.289598,231.347702 22.433456,234.001038 
	C23.268034,235.936981 26.685480,237.349396 29.172483,237.815048 
	C31.600969,238.269745 34.309776,237.227219 37.664326,236.940338 
	C53.680912,236.909912 69.697495,236.879471 86.687943,237.006210 
	C90.641685,236.933563 95.591591,238.313751 98.314857,236.446518 
	C102.363632,233.670395 101.607887,228.293015 99.747543,223.744461 
	C99.642502,223.487625 99.255737,223.345993 99.402679,223.458221 
	C95.546593,222.938248 92.141548,222.378311 88.714806,222.035126 
	C76.433098,220.805084 71.500366,215.691467 70.923904,202.533936 
	C70.948463,197.752762 71.061378,192.970016 70.977112,188.190765 
	C70.847221,180.824860 70.582207,173.461349 70.089348,165.163864 
	C70.009361,162.180283 69.929375,159.196686 69.954987,155.443756 
	C69.971947,124.205185 69.972298,92.966576 70.047310,61.728138 
	C70.051788,59.863605 70.654083,58.000504 71.040886,56.865051 
	C84.520126,87.540428 97.962395,118.232124 111.489433,148.886414 
	C123.959152,177.144669 136.392059,205.421387 149.268692,233.493881 
	C150.370804,235.896667 154.548019,237.721222 157.551544,238.193420 
	C160.775055,238.700165 163.681976,236.717911 164.997253,232.995316 
	C167.101151,227.040771 169.471069,221.170929 171.955399,215.362305 
	C175.346786,207.432877 179.168976,199.682755 182.405136,191.693192 
	C185.909225,183.042130 188.807846,174.147034 192.249115,165.468857 
	C194.353027,160.163223 197.218155,155.159348 199.320496,149.853210 
	C202.759537,141.173340 205.664932,132.281021 209.144821,123.618668 
	C213.383499,113.067459 218.125885,102.718987 222.390106,92.177528 
	C227.265366,80.125465 231.854477,67.957649 237.377609,56.264812 
	C237.584946,58.050209 237.966934,59.835083 237.972275,61.621082 
	C238.019455,77.412331 237.981796,93.203804 238.003693,108.995163 
	C238.046112,139.577972 238.110947,170.160736 237.895035,201.526917 
	C237.592636,202.945496 237.182678,204.350784 237.005569,205.784836 
	C235.983765,214.057938 230.131760,220.762711 222.603897,221.907791 
	C218.869446,222.475861 215.055023,222.515167 211.318115,223.071411 
	C209.845245,223.290649 207.425690,224.071198 207.266663,224.933548 
	C206.730652,227.840012 206.160034,231.274918 207.261505,233.777664 
	C208.127167,235.744614 211.347351,237.534851 213.697311,237.790863 
	C217.372971,238.191299 221.197083,237.229202 225.709366,236.938858 
	C247.212540,236.906952 268.715698,236.875031 291.104980,237.042770 
	C295.012787,238.605148 298.957611,238.888809 302.308228,236.039398 
	C306.612915,232.378632 304.666382,227.895538 303.390472,223.487320 
	C299.470581,222.990631 295.546021,221.942947 291.674774,222.112579 
	C282.408203,222.518631 273.475647,214.200439 273.935181,200.625031 
	C273.957123,181.135864 274.011139,161.646667 273.993774,142.157532 
	C273.965912,110.843269 273.890869,79.529030 273.939819,47.326569 
	C274.992249,43.526821 275.402802,39.380413 277.229187,35.998653 
	C281.172302,28.697483 288.276947,27.734091 295.835022,27.945940 
	C302.356903,28.128746 304.430969,26.683683 304.692261,21.019007 
	C304.812500,18.412111 302.849854,15.709144 301.435547,12.302297 
	C293.273804,12.495591 285.112030,12.688886 276.111542,12.975557 
	C275.270264,13.036310 274.429016,13.097063 272.736969,13.046968 
	C262.000641,13.031595 251.264038,12.976101 240.528259,13.046346 
	C239.008209,13.056291 237.492188,13.678492 236.030914,14.032884 
	C236.030914,14.032884 236.023773,13.974606 235.400208,14.228338 
M21.462481,404.648438 
	C23.449268,404.765594 25.436052,404.985321 27.422846,404.985443 
	C296.225983,404.999359 565.029114,404.997284 833.936401,405.928772 
	C833.956848,421.758087 834.118408,437.589325 833.905457,453.415497 
	C833.847107,457.750000 835.044983,459.097809 839.502075,459.092224 
	C935.812500,458.971344 1032.123169,458.973785 1128.433716,459.086823 
	C1132.790161,459.091919 1134.153809,457.911743 1134.099854,453.476898 
	C1133.902954,437.319366 1134.111206,421.156860 1135.061035,404.998047 
	C1414.844849,404.998688 1694.628540,405.001587 1974.412354,404.959564 
	C1976.638062,404.959229 1978.863647,404.348663 1981.633667,403.407623 
	C1982.705444,394.005646 1982.705444,394.005646 1973.295288,394.001709 
	C1972.462280,394.001373 1971.629150,394.001526 1970.796143,394.001526 
	C1721.556274,394.001526 1472.316284,394.002930 1223.076416,393.999664 
	C1193.421021,393.999268 1163.765625,393.973206 1134.041748,393.029053 
	C1134.027344,376.704437 1133.909912,360.378815 1134.073608,344.056000 
	C1134.112793,340.159882 1132.920776,338.919342 1128.974731,338.923096 
	C1032.359131,339.015045 935.743469,339.020630 839.127869,338.910156 
	C834.777771,338.905182 833.887512,340.513031 833.923828,344.449890 
	C834.075806,360.939148 833.949219,377.430969 832.999084,393.971039 
	C830.333740,393.981232 827.668396,394.000305 825.003052,394.000336 
	C559.962158,394.001709 294.921326,394.001526 29.880444,394.003265 
	C27.714968,394.003265 25.448565,393.644653 23.420233,394.178680 
	C22.112820,394.522919 20.383265,396.083313 20.209337,397.294769 
	C19.898575,399.459381 20.620604,401.772247 21.462481,404.648438 
M1030.346313,6.236941 
	C1024.878052,6.160487 1019.407227,5.952861 1013.942322,6.055934 
	C1010.571960,6.119503 1007.210510,6.656817 1003.052673,7.098279 
	C994.792664,9.082143 986.207031,10.208186 978.329346,13.199047 
	C945.033752,25.840118 938.018188,53.015305 942.493713,80.810371 
	C944.846375,95.421585 953.923096,106.112091 965.212097,115.020187 
	C979.491211,126.287621 996.410278,132.565292 1012.689758,140.095428 
	C1024.150757,145.396729 1035.730835,150.314194 1046.050903,158.089096 
	C1064.774536,172.195129 1066.333740,199.703583 1049.103394,216.163681 
	C1035.327637,229.323547 1018.097961,231.758621 999.922302,228.351730 
	C995.656128,227.552078 991.202148,226.149246 987.572571,223.855957 
	C976.151672,216.639999 971.124512,205.935425 971.977051,192.414673 
	C972.408569,185.571533 975.356262,180.178452 981.415771,177.131699 
	C984.388123,175.637161 984.720337,173.424606 983.570190,171.587021 
	C982.003540,169.083694 979.651428,166.043427 977.094604,165.406265 
	C972.055969,164.150620 966.593201,163.746933 961.399719,164.162918 
	C953.758057,164.775024 947.332458,168.479401 942.690369,174.735718 
	C934.017456,186.424255 935.430298,199.186569 940.398132,211.415649 
	C946.561218,226.586914 959.454041,234.726364 974.660278,238.783783 
	C983.307495,241.091095 992.463135,241.422424 1001.315857,243.046387 
	C1014.960876,245.549408 1028.484619,243.787567 1041.474487,240.386658 
	C1053.920044,237.128235 1065.865112,231.785110 1075.875000,223.038589 
	C1084.795410,215.244156 1090.878784,205.799179 1094.081055,194.390793 
	C1096.397583,186.138229 1096.083618,177.946518 1095.136475,169.496643 
	C1093.211426,152.321564 1085.496948,138.189377 1071.281616,129.166748 
	C1055.386841,119.078110 1038.301514,110.800018 1021.438354,102.322815 
	C1008.079956,95.607544 994.720032,89.282867 983.700134,78.673508 
	C971.014771,66.460693 971.454468,45.795269 983.834412,33.148148 
	C991.189087,25.634800 1000.046326,23.271832 1009.864014,21.797787 
	C1022.860474,19.846491 1034.834961,21.781784 1045.342896,29.734978 
	C1055.258423,37.239632 1059.054443,58.585396 1043.035767,65.518959 
	C1040.960449,66.417259 1039.013062,67.611717 1036.484863,68.943825 
	C1037.654053,70.873695 1038.481201,72.627975 1039.654419,74.107819 
	C1044.650024,80.409111 1051.474609,80.898643 1058.760498,80.010780 
	C1069.105957,78.750046 1077.220093,74.010056 1081.727051,64.458099 
	C1085.104736,57.299252 1085.235596,49.402534 1083.671997,41.850559 
	C1082.242920,34.947594 1079.638184,27.794270 1073.570312,23.758055 
	C1066.568115,19.100380 1058.877686,15.247821 1051.055420,12.123993 
	C1044.644043,9.563654 1037.601562,8.583724 1030.346313,6.236941 
z"/>
<path fill="#480F0E" opacity="1.000000" stroke="none" 
	d="
M1134.166748,404.996246 
	C1134.111206,421.156860 1133.902954,437.319366 1134.099854,453.476898 
	C1134.153809,457.911743 1132.790161,459.091919 1128.433716,459.086823 
	C1032.123169,458.973785 935.812500,458.971344 839.502075,459.092224 
	C835.044983,459.097809 833.847107,457.750000 833.905457,453.415497 
	C834.118408,437.589325 833.956848,421.758087 833.951111,405.219421 
	C833.983154,404.343140 834.000488,404.176208 834.309082,403.732361 
	C834.375061,400.277527 834.149902,397.099701 833.924683,393.921844 
	C833.949219,377.430969 834.075806,360.939148 833.923828,344.449890 
	C833.887512,340.513031 834.777771,338.905182 839.127869,338.910156 
	C935.743469,339.020630 1032.359131,339.015045 1128.974731,338.923096 
	C1132.920776,338.919342 1134.112793,340.159882 1134.073608,344.056000 
	C1133.909912,360.378815 1134.027344,376.704437 1133.903931,393.855103 
	C1133.856323,397.785553 1133.946655,400.889923 1134.040039,404.248596 
	C1134.084351,404.667358 1134.125610,404.831818 1134.166748,404.996246 
M900.859741,388.405426 
	C900.288086,388.217163 899.716431,388.028900 898.930237,387.166443 
	C898.063782,385.383606 897.257568,383.568359 896.320435,381.823486 
	C892.257019,374.257660 882.893372,370.363678 874.481934,372.737579 
	C878.881042,383.817780 887.097839,388.802368 899.237488,388.647949 
	C899.825806,388.764404 900.414124,388.880859 901.214111,389.518982 
	C901.614136,389.515656 902.014221,389.512360 902.414246,389.509033 
	C901.941101,389.341492 901.468018,389.173950 900.859741,388.405426 
M910.848022,392.323334 
	C908.770264,391.557892 906.692566,390.792450 903.994080,389.798340 
	C904.910339,391.214691 905.391968,391.959167 906.532288,393.721924 
	C892.987915,390.808411 885.193054,397.392426 879.372559,407.574951 
	C889.267212,411.855408 895.422363,411.180847 903.466858,404.782562 
	C905.799683,402.927094 908.193726,401.016632 910.039490,398.714294 
	C912.349854,395.832306 914.695190,395.687531 917.889832,396.943909 
	C922.512756,398.762085 927.291382,400.184479 932.595093,402.069427 
	C933.944946,402.668579 935.294800,403.267761 937.594910,404.288757 
	C921.321899,407.696106 913.686707,413.831635 912.362488,423.784943 
	C924.642151,425.594055 930.178040,423.583344 937.795288,414.414032 
	C939.387878,412.496979 940.682312,410.331665 942.280029,408.419434 
	C943.069824,407.474182 944.332764,406.081940 945.218689,406.192841 
	C952.287354,407.077698 959.316956,408.274414 966.358521,409.375549 
	C954.616028,413.939117 949.797546,422.779053 947.320679,433.785919 
	C958.453613,435.509064 968.527588,429.828888 972.920227,418.493744 
	C975.426025,412.027588 978.852478,409.286377 985.763794,410.249451 
	C989.808838,410.813080 993.996643,410.352203 998.120300,410.352203 
	C988.688965,417.733978 984.780212,426.553864 984.320435,438.851227 
	C990.454224,435.660004 996.620911,434.166748 1000.001953,430.261688 
	C1004.296265,425.301697 1006.314819,418.377289 1009.356995,412.321167 
	C1009.847229,411.345184 1010.412659,409.839294 1011.188782,409.663696 
	C1017.832397,408.160950 1024.532593,406.908325 1031.215942,405.580933 
	C1021.140747,413.753143 1021.425293,424.091339 1022.378113,435.244232 
	C1029.518677,432.817474 1035.066406,429.221344 1037.794556,423.056427 
	C1040.039795,417.983063 1040.780762,412.251801 1042.288696,406.840088 
	C1042.795410,405.021820 1043.137817,402.251892 1044.364868,401.692535 
	C1050.633667,398.834839 1057.167236,396.557800 1063.608154,394.077698 
	C1053.792480,403.784668 1057.706055,414.835175 1059.170044,426.027191 
	C1067.815430,421.961456 1073.373901,416.226837 1074.114136,406.956146 
	C1074.495728,402.176697 1074.122925,397.331573 1074.605225,392.568237 
	C1074.802856,390.617004 1075.877686,388.120483 1077.387939,387.056641 
	C1081.716309,384.007751 1086.613770,381.772614 1090.986206,378.777924 
	C1092.648804,377.639282 1093.490723,375.302551 1094.706665,373.511871 
	C1089.762939,375.358704 1085.800537,377.762695 1082.041382,380.450531 
	C1078.040405,383.311279 1075.244385,383.057770 1071.560059,379.195343 
	C1061.478760,368.627075 1049.649048,366.748169 1038.156738,373.181335 
	C1045.209106,381.666321 1052.666138,389.154114 1065.213379,388.374847 
	C1059.973022,391.343109 1054.799927,393.504150 1049.788086,395.990295 
	C1046.873047,397.436310 1045.362793,396.969055 1043.301392,394.239685 
	C1040.246216,390.194550 1036.607056,386.419769 1032.621582,383.286865 
	C1026.217407,378.252808 1018.851318,377.451385 1011.034851,379.974976 
	C1014.466064,389.797180 1020.962769,395.056946 1037.346436,400.864777 
	C1029.365112,402.791107 1022.697266,404.536407 1015.948120,405.869904 
	C1015.027283,406.051910 1013.444946,404.365479 1012.605408,403.223267 
	C1008.981140,398.292694 1005.977966,392.822723 1001.878723,388.345642 
	C997.062195,383.085175 990.678467,380.814301 983.022705,382.397705 
	C986.768188,394.240936 991.410400,404.872833 1005.978088,407.174286 
	C998.217407,408.267456 990.923401,408.419922 983.648315,408.117767 
	C982.432190,408.067261 980.869202,406.253235 980.203064,404.893280 
	C977.796814,399.980164 976.086243,394.696991 973.400269,389.957428 
	C969.851318,383.695099 961.245667,379.609344 954.773926,380.878174 
	C956.566528,386.259491 957.379761,392.204163 960.376648,396.689972 
	C963.244263,400.982422 968.381592,403.758514 972.672302,407.326630 
	C964.636353,406.222229 956.508057,405.105164 948.592041,404.017273 
	C946.497742,383.821167 940.791199,375.096863 927.611511,372.317139 
	C928.491943,378.124084 928.382690,384.037842 930.440186,389.064850 
	C932.407471,393.871521 936.628296,397.755890 939.866882,402.056519 
	C937.442932,401.495483 934.721680,400.865662 931.302124,399.949829 
	C928.164734,398.881989 925.070679,397.654236 921.878235,396.789673 
	C918.445068,395.859894 917.860718,393.903961 918.165405,390.539490 
	C918.549316,386.298523 918.585449,381.851776 917.727539,377.710083 
	C916.104736,369.875641 911.529724,364.154175 903.429565,360.931000 
	C903.013489,365.026489 902.789612,368.478271 902.288635,371.889374 
	C901.362732,378.193176 903.607117,383.257324 908.033081,387.559082 
	C909.454529,388.940674 910.879944,390.318237 911.909424,392.115479 
	C911.779419,392.256073 911.649414,392.396637 910.848022,392.323334 
z"/>
<path fill="#FF4023" opacity="1.000000" stroke="none" 
	d="
M52.846363,11.988902 
	C57.924137,12.994386 63.068409,13.745436 68.067528,15.051898 
	C84.682137,19.393942 96.795448,28.649412 103.327042,45.288952 
	C108.893394,59.469521 116.071304,73.010612 122.311012,86.935547 
	C129.657959,103.331490 136.689987,119.868324 143.993500,136.284042 
	C150.326904,150.519302 156.866821,164.662582 163.266052,178.868774 
	C164.151367,180.834152 164.752472,182.927551 165.930573,186.198318 
	C189.103271,129.007370 211.745834,73.124809 234.965973,16.858082 
	C235.703613,15.640813 235.863693,14.807710 236.023773,13.974606 
	C236.023773,13.974606 236.030914,14.032884 236.471527,14.066088 
	C238.898087,14.073749 240.884705,14.072718 242.869873,14.018548 
	C253.109360,13.739133 263.348480,13.446098 273.587738,13.157816 
	C274.429016,13.097063 275.270264,13.036310 276.999146,12.990133 
	C285.868408,13.019718 293.850067,13.034728 301.831696,13.049739 
	C302.849854,15.709144 304.812500,18.412111 304.692261,21.019007 
	C304.430969,26.683683 302.356903,28.128746 295.835022,27.945940 
	C288.276947,27.734091 281.172302,28.697483 277.229187,35.998653 
	C275.402802,39.380413 274.992249,43.526821 273.718964,48.127480 
	C273.333435,50.911297 273.026154,52.894119 273.025024,54.877113 
	C272.998322,101.453384 272.992859,148.029678 273.040283,194.605911 
	C273.042603,196.896271 273.559479,199.186127 273.836731,201.476212 
	C273.475647,214.200439 282.408203,222.518631 291.674774,222.112579 
	C295.546021,221.942947 299.470581,222.990631 303.390472,223.487320 
	C304.666382,227.895538 306.612915,232.378632 302.308228,236.039398 
	C298.957611,238.888809 295.012787,238.605148 290.353149,236.814819 
	C271.349823,236.402252 253.098572,236.173019 234.846603,236.074066 
	C231.552002,236.056183 228.254471,236.573853 224.958298,236.844284 
	C221.197083,237.229202 217.372971,238.191299 213.697311,237.790863 
	C211.347351,237.534851 208.127167,235.744614 207.261505,233.777664 
	C206.160034,231.274918 206.730652,227.840012 207.266663,224.933548 
	C207.425690,224.071198 209.845245,223.290649 211.318115,223.071411 
	C215.055023,222.515167 218.869446,222.475861 222.603897,221.907791 
	C230.131760,220.762711 235.983765,214.057938 237.005569,205.784836 
	C237.182678,204.350784 237.592636,202.945496 238.191345,200.780914 
	C238.655106,198.219894 238.967575,196.404984 238.968765,194.589874 
	C238.998459,149.653275 238.997513,104.716660 238.986618,59.780045 
	C238.986298,58.457306 238.875443,57.124409 238.637772,55.828968 
	C238.615967,55.710106 237.288895,55.830719 236.567932,55.840134 
	C231.854477,67.957649 227.265366,80.125465 222.390106,92.177528 
	C218.125885,102.718987 213.383499,113.067459 209.144821,123.618668 
	C205.664932,132.281021 202.759537,141.173340 199.320496,149.853210 
	C197.218155,155.159348 194.353027,160.163223 192.249115,165.468857 
	C188.807846,174.147034 185.909225,183.042130 182.405136,191.693192 
	C179.168976,199.682755 175.346786,207.432877 171.955399,215.362305 
	C169.471069,221.170929 167.101151,227.040771 164.997253,232.995316 
	C163.681976,236.717911 160.775055,238.700165 157.551544,238.193420 
	C154.548019,237.721222 150.370804,235.896667 149.268692,233.493881 
	C136.392059,205.421387 123.959152,177.144669 111.489433,148.886414 
	C97.962395,118.232124 84.520126,87.540428 70.963882,56.200218 
	C70.226051,56.815975 68.991585,58.095612 68.989441,59.377300 
	C68.949959,83.010468 69.002625,106.644264 69.163330,130.277054 
	C69.222122,138.923553 69.611061,147.567825 69.849388,156.213104 
	C69.929375,159.196686 70.009361,162.180283 70.142731,166.085358 
	C70.407829,179.126205 70.619537,191.245560 70.831245,203.364929 
	C71.500366,215.691467 76.433098,220.805084 88.714806,222.035126 
	C92.141548,222.378311 95.546593,222.938248 99.402679,223.458221 
	C99.255737,223.345993 99.642502,223.487625 99.747543,223.744461 
	C101.607887,228.293015 102.363632,233.670395 98.314857,236.446518 
	C95.591591,238.313751 90.641685,236.933563 85.938965,236.824860 
	C75.384567,236.412399 65.579376,236.021606 55.773640,236.007599 
	C49.481346,235.998611 43.188259,236.544708 36.895527,236.841980 
	C34.309776,237.227219 31.600969,238.269745 29.172483,237.815048 
	C26.685480,237.349396 23.268034,235.936981 22.433456,234.001038 
	C21.289598,231.347702 21.911488,227.762253 22.425617,224.684692 
	C22.554771,223.911560 25.118160,223.275635 26.632391,223.055939 
	C30.526638,222.490891 34.526421,222.515930 38.363194,221.721527 
	C45.580795,220.227112 49.900166,215.063034 51.082493,207.302917 
	C51.175789,206.690582 51.616497,206.131180 52.211288,204.816956 
	C52.629803,190.377213 52.732777,176.667679 52.835747,162.958145 
	C52.909397,160.809067 52.983051,158.659988 53.197762,155.699249 
	C53.512295,137.902420 53.685768,120.917244 53.878433,103.468033 
	C53.941708,86.455154 54.019325,69.906250 53.990810,53.357529 
	C53.986897,51.084606 53.455528,48.812595 53.168358,46.540161 
	C52.944828,46.295132 52.539394,46.061081 52.523849,45.803501 
	C51.709862,32.314152 41.846283,29.153276 31.100794,26.983797 
	C29.826323,26.726486 28.555679,26.442879 27.295553,26.123032 
	C20.234442,24.330780 18.380184,17.927099 24.076881,12.140066 
	C34.202000,12.007124 43.524181,11.998013 52.846363,11.988902 
z"/>
<path fill="#FF4023" opacity="1.000000" stroke="none" 
	d="
M1727.058838,233.255890 
	C1722.521729,219.774582 1717.892578,206.323334 1713.472778,192.803665 
	C1708.886597,178.775543 1704.518311,164.676346 1700.027954,150.616730 
	C1690.049683,119.373482 1680.120972,88.114021 1669.999023,56.917343 
	C1668.384644,51.941853 1666.029419,47.181572 1663.741089,42.455208 
	C1659.167480,33.008324 1650.997437,28.658539 1641.058105,27.006786 
	C1636.390381,26.231102 1632.619751,25.050312 1632.858887,18.848522 
	C1633.041260,14.118603 1635.203003,12.220584 1639.380859,12.042059 
	C1653.519043,11.437917 1667.472412,12.521248 1680.587036,18.338379 
	C1691.829224,23.324993 1698.862549,32.779163 1702.634155,43.800903 
	C1711.340576,69.244255 1718.983154,95.051598 1727.055054,120.712029 
	C1732.716309,138.709183 1738.363037,156.710938 1744.066284,174.694733 
	C1744.332031,175.532547 1745.088501,176.214722 1746.257324,177.885437 
	C1760.705322,122.733292 1774.907959,68.517998 1789.187744,14.008587 
	C1794.779785,14.008587 1800.110352,13.775615 1805.394165,14.168709 
	C1806.753540,14.269824 1808.613770,16.103447 1809.145752,17.546162 
	C1814.199463,31.252558 1819.062988,45.029999 1823.892334,58.818157 
	C1837.623535,98.022881 1851.312500,137.242371 1865.024292,176.453918 
	C1865.181641,176.903809 1865.419312,177.325668 1866.041260,178.678268 
	C1868.495972,170.904083 1870.794922,163.912628 1872.910522,156.866150 
	C1878.518188,138.190063 1884.114868,119.510162 1889.588013,100.794418 
	C1895.566406,80.351051 1901.493286,59.891510 1907.251099,39.385235 
	C1909.355103,31.891724 1906.574341,28.779655 1897.701172,28.039263 
	C1895.549194,27.859682 1893.370239,28.006655 1891.203613,28.000465 
	C1883.162842,27.977491 1881.147705,25.458130 1883.035645,16.644081 
	C1883.727173,15.427427 1883.888184,14.695215 1884.049316,13.963003 
	C1884.049316,13.963005 1884.054199,14.049239 1884.298340,13.999808 
	C1884.712524,13.621463 1884.882568,13.292549 1885.052490,12.963625 
	C1885.052490,12.963615 1885.044312,13.053851 1885.470703,13.079842 
	C1893.616089,13.037856 1901.335083,12.969880 1909.054199,12.901902 
	C1909.524170,12.950905 1909.994019,12.999909 1911.187378,13.233162 
	C1921.550781,13.332095 1931.190918,13.246781 1940.830933,13.161467 
	C1946.994873,13.107434 1953.177368,13.328122 1959.316650,12.911262 
	C1964.112915,12.585599 1965.905273,14.578201 1966.025757,19.075874 
	C1966.189697,25.187923 1964.514526,27.503332 1959.486328,28.013451 
	C1953.611938,28.609407 1947.573486,28.696602 1941.928101,30.207666 
	C1930.318481,33.315125 1925.154297,42.532253 1922.035889,53.282276 
	C1920.083374,60.012840 1918.033081,66.715080 1916.016357,73.426949 
	C1913.721436,81.064072 1911.446899,88.707558 1909.106079,96.330635 
	C1905.990356,106.476608 1902.803833,116.600792 1899.675659,126.742958 
	C1896.141235,138.202057 1892.638672,149.670914 1889.121094,161.135193 
	C1886.004883,171.291214 1882.879639,181.444458 1879.772217,191.603195 
	C1876.218750,203.219696 1872.686035,214.842606 1869.132446,226.459061 
	C1867.980347,230.224579 1866.799683,233.981491 1865.605469,237.733826 
	C1865.456543,238.201660 1865.172119,238.980637 1864.900879,239.002579 
	C1860.207520,239.382019 1855.487305,240.013214 1850.818481,239.757233 
	C1849.421021,239.680618 1847.522583,237.287735 1846.935059,235.583252 
	C1834.207886,198.663940 1821.637207,161.690720 1809.028687,124.730530 
	C1803.219238,107.701180 1797.393799,90.677315 1791.039429,72.081459 
	C1788.451172,81.210083 1786.209229,88.972343 1784.055542,96.759018 
	C1782.307739,103.077568 1780.662109,109.424393 1778.978394,115.760567 
	C1777.002563,123.195992 1775.041870,130.635437 1773.060913,138.069458 
	C1770.461182,147.825546 1767.895996,157.591171 1765.222534,167.327072 
	C1763.623535,173.150269 1761.764282,178.902008 1760.170166,184.726456 
	C1758.280396,191.630966 1756.490601,198.564346 1754.764893,205.511856 
	C1752.290894,215.472076 1749.936523,225.462051 1747.460449,235.421799 
	C1747.208740,236.434097 1746.475342,237.326675 1745.442627,238.635956 
	C1742.965698,239.014191 1740.979248,239.264954 1739.064819,238.998611 
	C1735.340820,238.480545 1731.657227,237.672516 1727.956909,236.984573 
	C1727.956909,236.984573 1728.018921,236.980835 1728.070068,236.671875 
	C1727.767212,235.327255 1727.412964,234.291565 1727.058838,233.255890 
z"/>
<path fill="#FF4022" opacity="1.000000" stroke="none" 
	d="
M1220.834106,16.803579 
	C1220.789307,18.775316 1220.870605,20.759806 1220.672852,22.716082 
	C1220.286865,26.531555 1218.104004,27.916588 1214.251099,28.109138 
	C1209.396484,28.351751 1204.118164,28.373997 1199.849121,30.311897 
	C1191.616943,34.048885 1189.425171,41.658524 1189.829346,50.947136 
	C1189.336914,52.626320 1189.058105,53.607216 1189.056396,54.588577 
	C1189.023438,74.177193 1189.003784,93.765907 1189.059448,113.354370 
	C1189.062988,114.585213 1189.705566,115.814232 1190.050903,117.044098 
	C1190.050903,117.044098 1189.968506,117.054375 1190.307129,117.254005 
	C1192.120361,117.633240 1193.594849,117.968277 1195.069702,117.969620 
	C1228.301514,117.999756 1261.533447,118.008659 1294.765137,117.950645 
	C1296.523315,117.947578 1298.280396,117.320053 1300.037964,116.983246 
	C1300.037964,116.983246 1300.024780,117.060112 1300.302246,116.765015 
	C1300.713379,115.654190 1300.962891,114.838570 1300.963501,114.022758 
	C1300.979492,93.222801 1300.985474,72.422791 1300.929810,51.622952 
	C1300.925903,50.166656 1300.431641,48.711674 1300.165527,47.256088 
	C1299.752197,45.521248 1299.310303,43.792629 1298.930420,42.050518 
	C1297.060303,33.472660 1290.772705,28.299604 1281.814697,28.003647 
	C1280.818237,27.970724 1279.819580,28.000881 1278.822021,28.000107 
	C1269.214111,27.992645 1267.815308,26.580147 1268.344849,16.690838 
	C1268.769043,16.166082 1268.922607,16.080009 1269.052368,15.951314 
	C1269.052368,15.951314 1269.019287,16.052992 1269.269775,15.907836 
	C1269.697632,15.162167 1269.874756,14.561653 1270.052002,13.961142 
	C1270.052002,13.961143 1270.055542,14.051664 1270.305664,14.014042 
	C1270.722534,13.640102 1270.889526,13.303784 1271.056519,12.967478 
	C1271.056519,12.967488 1271.047241,13.059139 1271.472656,13.088931 
	C1279.609497,13.040710 1287.320801,12.962698 1295.032227,12.884686 
	C1295.539185,12.934287 1296.046265,12.983890 1297.290649,13.219688 
	C1310.901245,13.323500 1323.774414,13.241115 1336.647583,13.158733 
	C1337.160156,13.099488 1337.672729,13.040240 1339.037598,12.992676 
	C1347.870483,13.020078 1355.851196,13.035798 1363.831787,13.051514 
	C1364.463013,13.811488 1365.208496,14.503562 1365.707397,15.342270 
	C1369.276855,21.344559 1365.779175,27.583771 1358.817017,28.048473 
	C1354.782227,28.317791 1350.648560,28.640253 1346.795532,29.755127 
	C1340.291748,31.636988 1336.139893,38.399399 1335.699951,47.021984 
	C1335.311523,49.767971 1335.027954,51.755905 1335.026978,53.743973 
	C1335.003906,101.235924 1335.000488,148.727890 1335.047607,196.219803 
	C1335.049683,198.343994 1335.561279,200.467697 1335.835693,202.591614 
	C1336.523193,215.527267 1341.667114,220.833817 1354.612793,222.023941 
	C1357.560791,222.294998 1360.530151,222.527649 1363.421875,223.113388 
	C1364.416992,223.314972 1365.978027,224.560577 1365.956543,225.290390 
	C1365.855957,228.713821 1366.330933,232.793884 1364.656860,235.382828 
	C1362.085938,239.358902 1357.447021,238.439911 1352.587646,236.772018 
	C1334.285522,236.389114 1316.756104,236.134872 1299.225830,236.051239 
	C1294.947144,236.030807 1290.665649,236.569916 1286.385498,236.851746 
	C1282.974487,237.234314 1279.567749,237.888290 1276.151611,237.941299 
	C1269.622314,238.042648 1265.678223,231.203842 1269.007446,225.467224 
	C1269.714111,224.249588 1271.669556,223.370346 1273.190674,223.083801 
	C1277.831177,222.209610 1282.583496,221.918472 1287.213135,221.000732 
	C1294.972168,219.462677 1298.408691,211.885696 1299.020874,205.897171 
	C1299.119141,204.935669 1299.390503,203.991882 1300.042480,202.397476 
	C1300.650879,200.771530 1300.925537,199.788254 1300.927490,198.804459 
	C1300.968628,178.001846 1300.882935,157.198334 1301.068481,136.397186 
	C1301.110352,131.715729 1298.377930,131.957962 1295.238647,131.960220 
	C1261.787598,131.984375 1228.336304,132.056396 1194.886108,131.881149 
	C1190.249146,131.856842 1188.916138,133.344162 1188.967163,137.859848 
	C1189.173950,156.164032 1189.029907,174.471985 1189.088257,192.778320 
	C1189.094482,194.738281 1189.575439,196.696716 1189.836304,198.655869 
	C1189.883667,205.852371 1190.294434,213.019211 1196.828613,217.706711 
	C1199.377319,219.535080 1202.354370,221.129074 1205.370605,221.851288 
	C1209.172363,222.761536 1213.237671,222.515228 1217.137085,223.109619 
	C1218.245117,223.278519 1219.641968,224.430069 1220.106201,225.483490 
	C1223.312500,232.761185 1219.786133,238.087006 1211.858521,237.952560 
	C1209.251709,237.908386 1206.654297,237.306671 1203.279053,236.789078 
	C1181.496338,236.509277 1160.487427,236.395493 1139.478271,236.314636 
	C1138.844482,236.312210 1138.209351,236.654648 1137.574829,236.836304 
	C1127.635742,240.000717 1123.719971,237.025970 1122.274658,231.501587 
	C1121.043701,226.796265 1123.695068,223.299744 1128.539551,222.968613 
	C1132.154785,222.721497 1135.812134,222.485703 1139.343140,221.737030 
	C1146.944946,220.125244 1151.757202,214.654205 1153.008667,206.817337 
	C1153.185669,205.709885 1153.589233,204.638641 1154.204346,202.817551 
	C1154.676025,200.432663 1154.965698,198.780945 1154.966553,197.129074 
	C1154.991699,148.990463 1154.997803,100.851822 1154.954102,52.713234 
	C1154.952271,50.755650 1154.437134,48.798534 1154.161133,46.841198 
	C1153.757690,45.300571 1153.277222,43.775455 1152.963745,42.216732 
	C1151.247070,33.679794 1145.071167,28.431200 1136.137085,28.009100 
	C1134.652344,27.938950 1133.160156,27.957428 1131.673828,28.008490 
	C1128.044067,28.133192 1124.764160,27.590080 1123.089355,23.774500 
	C1121.307373,19.714884 1122.040283,16.187054 1126.123291,13.068935 
	C1134.957764,12.919167 1143.004395,12.905373 1151.050903,12.891579 
	C1151.565430,12.939073 1152.079834,12.986566 1153.331787,13.223450 
	C1166.944824,13.328579 1179.820679,13.244317 1192.696411,13.160055 
	C1192.929810,13.095023 1193.163330,13.029990 1194.186035,12.922771 
	C1202.996826,12.934609 1211.018433,12.988635 1219.040161,13.042662 
	C1219.040161,13.042662 1218.962646,13.046113 1218.995239,13.303444 
	C1219.366211,13.719317 1219.704590,13.877860 1220.042969,14.036408 
	C1220.042969,14.036414 1219.962036,14.037284 1219.891113,14.305548 
	C1220.158203,15.317070 1220.496094,16.060328 1220.834106,16.803579 
z"/>
<path fill="#FF4023" opacity="1.000000" stroke="none" 
	d="
M1520.118408,6.955459 
	C1526.485962,8.308601 1532.991455,9.207527 1539.197021,11.093738 
	C1565.658447,19.136871 1587.079956,33.913967 1601.569092,58.059162 
	C1610.885986,73.585106 1616.368774,90.284157 1618.786133,108.973068 
	C1619.017334,118.475014 1619.071167,127.155441 1619.125000,135.835876 
	C1618.423218,139.175079 1617.503662,142.485428 1617.056885,145.858414 
	C1615.014893,161.277771 1608.895996,175.070786 1601.180054,188.429871 
	C1591.612793,204.994431 1577.964722,217.372360 1562.012207,227.171570 
	C1547.977295,235.792847 1532.676636,241.456604 1516.020020,243.062454 
	C1483.646606,246.183563 1455.326416,237.435745 1430.955444,215.568848 
	C1410.786621,197.472397 1399.129761,174.931808 1394.097168,148.636337 
	C1393.820557,147.190796 1394.061279,145.646225 1394.081543,143.232574 
	C1394.039185,131.852356 1393.976440,121.387337 1393.913696,110.922318 
	C1395.362915,88.991692 1403.683228,69.705620 1416.544067,52.172649 
	C1417.704712,50.590420 1418.952881,49.072372 1420.704346,47.161507 
	C1421.512817,46.198555 1421.777222,45.598591 1422.041626,44.998619 
	C1422.041626,44.998608 1422.053223,45.048500 1422.366699,45.061134 
	C1423.136597,44.383129 1423.592896,43.692490 1424.049072,43.001839 
	C1424.049072,43.001831 1424.061890,43.056168 1424.320679,43.014137 
	C1424.735718,42.640507 1424.891968,42.308910 1425.048340,41.977318 
	C1425.048340,41.977322 1425.048218,42.048298 1425.298340,42.002762 
	C1425.715820,41.631733 1425.883179,41.306236 1426.050537,40.980759 
	C1426.050537,40.980770 1426.049927,41.051071 1426.300049,41.004902 
	C1426.717407,40.633762 1426.884644,40.308792 1427.052002,39.983849 
	C1427.052002,39.983871 1427.052979,40.053200 1427.303467,40.006798 
	C1427.719971,39.635586 1427.886108,39.310783 1428.052124,38.985962 
	C1428.052124,38.985950 1428.054321,39.054337 1428.305542,39.009331 
	C1428.722046,38.639584 1428.887329,38.314846 1429.052734,37.990120 
	C1429.052734,37.990135 1429.056274,38.056751 1429.309326,38.011909 
	C1429.724854,37.640217 1429.887451,37.313362 1430.050049,36.986496 
	C1430.049927,36.986477 1430.054932,37.053093 1430.310181,37.014717 
	C1430.725708,36.650169 1430.885986,36.323994 1431.046387,35.997829 
	C1431.046387,35.997837 1431.053345,36.058681 1431.379395,36.069504 
	C1432.492798,35.249332 1433.280151,34.418343 1434.067505,33.587357 
	C1447.957764,22.115891 1463.448364,13.744127 1481.033691,9.498826 
	C1485.006958,8.539657 1489.054565,7.887563 1493.938843,7.065530 
	C1503.245972,7.009792 1511.682251,6.982627 1520.118408,6.955459 
M1434.537109,113.964714 
	C1434.638916,122.422386 1434.740723,130.880051 1434.957886,140.319427 
	C1435.436279,154.367233 1438.855591,167.683640 1443.699585,180.880539 
	C1448.633301,194.322159 1456.285034,205.714874 1466.954956,214.840439 
	C1483.649048,229.118225 1503.318970,230.672974 1523.721924,225.540787 
	C1538.312256,221.870743 1548.725342,212.078537 1557.037842,199.912552 
	C1567.569946,184.498047 1572.080811,166.953156 1575.001465,148.854462 
	C1575.724487,144.374146 1576.447632,139.893845 1577.443604,134.739319 
	C1577.352661,126.021576 1577.261719,117.303841 1576.553467,107.921837 
	C1575.344727,94.794220 1572.635620,82.010117 1568.042603,69.624329 
	C1563.160156,56.457970 1556.118774,44.794132 1545.335815,35.553123 
	C1536.407715,27.901638 1525.975464,24.210194 1514.451050,22.643658 
	C1499.933594,20.670279 1486.064819,22.581465 1473.581909,30.101904 
	C1459.695923,38.467560 1450.484985,51.433167 1444.680054,66.167503 
	C1438.778198,81.147568 1435.052368,96.913269 1434.537109,113.964714 
z"/>
<path fill="#FF4023" opacity="1.000000" stroke="none" 
	d="
M542.882629,13.161900 
	C549.691223,13.109730 556.509949,12.844995 563.300781,13.167692 
	C564.833862,13.240543 567.117432,15.080617 567.610046,16.581568 
	C570.367249,24.982912 567.933289,28.139339 558.874084,27.951246 
	C551.182251,27.791542 544.068726,29.468586 540.441528,36.594864 
	C538.389099,40.627285 538.693176,45.859173 537.741699,51.358299 
	C537.403015,53.982391 537.134888,55.798790 537.131897,57.615623 
	C537.050171,107.338287 536.986389,157.060989 536.974304,206.783707 
	C536.973877,208.533661 537.532776,210.283752 537.830933,212.033798 
	C537.526794,218.460266 537.562317,224.931610 536.723206,231.287430 
	C536.451416,233.345947 534.261902,235.801208 532.295654,236.856659 
	C527.567505,239.394592 522.682251,238.346039 519.268616,234.402191 
	C513.890320,228.188614 508.979858,221.558212 504.048859,214.971390 
	C479.789734,182.566208 455.594360,150.113327 431.366058,117.685074 
	C416.688599,98.040123 401.992218,78.409355 387.103149,58.192600 
	C386.610809,57.402386 386.319641,57.191788 386.028473,56.981190 
	C386.028473,56.981186 385.997559,56.999672 385.974304,56.721638 
	C385.654053,56.299828 385.357025,56.156052 385.060028,56.012276 
	C385.060028,56.012272 384.987274,56.016777 384.965515,55.683575 
	C384.268646,56.696625 383.017456,58.038628 383.007477,59.389771 
	C382.907227,72.987511 382.925110,86.587761 383.085419,100.185234 
	C383.200653,109.958679 383.582520,119.728981 383.845459,129.500687 
	C384.196472,133.373215 384.547485,137.245728 384.575989,141.847305 
	C384.222290,161.455246 384.181152,180.334137 384.188843,199.213013 
	C384.189240,200.172440 384.609833,201.131714 384.834778,202.091064 
	C384.565857,213.930618 391.312531,220.091293 397.150421,221.513977 
	C400.779999,222.398483 404.581665,222.727310 408.327240,222.951584 
	C414.701691,223.333313 417.303131,228.558594 414.130829,234.408737 
	C412.046753,238.252045 409.722961,239.174896 399.327637,236.770996 
	C383.012543,236.666946 367.466125,236.755463 351.919678,236.843994 
	C349.166779,237.229340 346.391846,237.499969 343.665527,238.023651 
	C337.782318,239.153671 332.827240,231.669571 336.432190,224.696762 
	C336.963562,223.668945 339.201996,223.275406 340.718597,223.053772 
	C344.611908,222.484848 348.617584,222.520813 352.444183,221.694016 
	C360.285065,219.999847 365.462524,213.261658 365.982391,204.473755 
	C366.429840,196.910187 366.707947,189.336624 367.217590,180.928925 
	C367.533417,163.697205 367.692596,147.304031 367.864624,130.447937 
	C367.933533,104.345039 368.013916,78.705025 368.006256,53.065037 
	C368.005524,50.613079 367.455688,48.161289 367.160767,45.709419 
	C365.094910,32.009525 354.615875,28.991787 343.360443,26.931894 
	C342.572845,26.787750 341.851166,26.313347 341.068695,26.106445 
	C334.268585,24.308268 332.471588,17.803101 338.063049,12.154192 
	C348.280487,12.007266 357.697083,11.980098 367.113647,11.952930 
	C371.722168,12.936473 376.320343,13.971658 380.941162,14.893617 
	C393.463043,17.392042 403.531250,24.281277 411.199463,33.952255 
	C429.457977,56.979553 447.136505,80.468208 464.956757,103.841049 
	C482.080841,126.300835 499.075378,148.859344 516.179504,171.334396 
	C517.217773,172.698746 518.719849,173.710083 520.638489,175.463608 
	C520.754700,173.401413 520.831909,172.031296 520.868958,169.828873 
	C520.832886,144.012009 520.836975,119.027473 520.905029,93.575150 
	C520.980469,85.346481 521.105103,77.583626 520.969666,69.825317 
	C520.849121,62.916973 520.440552,56.013653 520.159058,49.108116 
	C519.739075,46.708282 519.389526,44.293591 518.886475,41.911297 
	C517.061523,33.268017 510.920044,28.316074 501.687469,28.012409 
	C499.857666,27.952225 498.022461,28.053152 496.192963,27.988308 
	C490.985992,27.803761 487.927246,24.554329 488.075409,19.426249 
	C488.199799,15.120687 490.851624,13.010060 496.228119,13.004342 
	C502.222534,12.997967 508.216980,13.032853 515.054382,13.252094 
	C524.892456,13.356906 533.887512,13.259403 542.882629,13.161900 
z"/>
<path fill="#FF4023" opacity="1.000000" stroke="none" 
	d="
M627.830261,12.134475 
	C633.870850,13.444554 640.066711,14.274744 645.918640,16.167864 
	C656.988098,19.748859 666.106995,26.372520 673.220459,35.661507 
	C698.361450,68.491364 723.506836,101.317802 748.658020,134.139832 
	C758.930237,147.544846 769.221313,160.935318 779.961304,174.818146 
	C780.972412,173.828796 781.991394,172.358154 782.005554,170.877930 
	C782.108887,160.048035 782.104126,149.214874 781.949585,138.385361 
	C781.797546,127.732948 781.428955,117.083641 781.155396,106.432968 
	C781.074036,103.558128 780.992737,100.683289 780.871948,96.903442 
	C780.872742,80.932640 780.939697,65.866814 780.917542,50.801105 
	C780.914917,49.021854 780.423645,47.243320 780.158936,45.464447 
	C779.597473,43.295631 779.135071,41.095306 778.456726,38.963722 
	C776.093323,31.537573 770.471375,28.573170 763.170349,28.017517 
	C762.010254,27.929228 760.837952,28.002962 759.671265,28.001152 
	C750.068237,27.986238 748.436768,26.177343 749.876648,16.087725 
	C750.670837,15.123406 750.860840,14.543353 751.050842,13.963301 
	C751.050842,13.963302 751.054016,14.050585 751.301636,14.007214 
	C751.716797,13.631196 751.884338,13.298552 752.051880,12.965900 
	C752.051880,12.965894 752.044800,13.053762 752.471863,13.083544 
	C759.943665,13.016936 766.988403,12.920549 774.033142,12.824162 
	C774.240967,12.882685 774.448853,12.941210 775.330078,13.218163 
	C785.237732,13.344359 794.471924,13.252127 803.706116,13.159894 
	C810.200073,13.108077 816.695190,13.116642 823.187500,12.984245 
	C827.897827,12.888190 828.707642,16.705164 828.763123,19.669968 
	C828.808228,22.080137 827.205750,25.385567 825.255676,26.730356 
	C823.225281,28.130507 819.908630,27.875837 817.142822,27.958591 
	C809.859131,28.176527 803.693359,30.456306 800.423767,37.394871 
	C799.389832,39.589020 799.636353,42.386562 798.895142,45.518684 
	C798.444824,54.059929 798.396240,61.990456 798.347656,69.920982 
	C798.211548,73.385048 798.075378,76.849121 797.793335,81.154755 
	C797.479553,104.689201 797.311646,127.382103 797.127563,150.538666 
	C797.046631,178.613113 796.981995,206.223862 796.917358,233.834625 
	C791.810608,239.590240 782.732239,239.379730 778.130615,233.214859 
	C754.228394,201.192200 730.446472,169.079514 706.500916,137.089340 
	C686.897705,110.900276 667.122131,84.840157 647.433533,58.714962 
	C646.942444,58.063316 646.574524,57.318893 645.929443,56.057449 
	C645.127747,56.691227 644.039124,57.884857 644.038086,59.079426 
	C644.011597,90.037422 644.098206,120.995522 644.100586,152.421509 
	C644.030457,164.018341 643.956787,175.147919 644.057617,186.275879 
	C644.091858,190.059479 644.565857,193.839096 644.838867,197.620529 
	C644.994568,204.927261 644.800903,212.520477 651.270386,217.570465 
	C653.972046,219.679352 657.513000,221.082001 660.890320,221.863556 
	C665.186279,222.857651 669.703552,222.895355 674.072815,223.340042 
	C676.997498,227.820892 677.002563,233.415497 673.530884,236.055450 
	C670.708862,238.201447 665.217773,236.837540 660.153564,236.835312 
	C652.951050,236.407455 646.503235,235.941437 640.059998,235.997513 
	C630.978271,236.076584 621.900024,236.542328 612.820251,236.842728 
	C609.388367,237.225433 605.835022,238.314468 602.565613,237.752228 
	C600.235229,237.351486 597.220886,235.118713 596.447876,232.997849 
	C595.559631,230.560577 595.803101,226.388367 597.392273,224.722061 
	C599.178650,222.848984 602.986633,222.781174 605.967102,222.190002 
	C623.155029,218.780945 623.432312,218.542099 626.999146,201.409485 
	C627.578064,198.429001 627.873779,196.111908 627.878662,193.794189 
	C627.957397,156.043289 628.005127,118.292305 628.031982,80.541313 
	C628.033264,78.723457 627.777527,76.905426 627.641541,75.087471 
	C627.386536,64.677452 627.438477,54.247963 626.779846,43.863544 
	C626.247437,35.470276 620.208557,31.445910 612.914368,29.111019 
	C609.813538,28.118441 606.555847,27.601656 603.354980,26.938503 
	C595.074524,25.222948 592.970703,21.223530 596.862183,13.124320 
	C597.642883,12.558665 597.836548,12.264097 598.030212,11.969536 
	C598.030212,11.969542 598.029663,12.037279 598.464966,12.084670 
	C608.543579,12.132865 618.186951,12.133669 627.830261,12.134475 
z"/>
<path fill="#FF4023" opacity="1.000000" stroke="none" 
	d="
M1030.838867,6.903216 
	C1037.601562,8.583724 1044.644043,9.563654 1051.055420,12.123993 
	C1058.877686,15.247821 1066.568115,19.100380 1073.570312,23.758055 
	C1079.638184,27.794270 1082.242920,34.947594 1083.671997,41.850559 
	C1085.235596,49.402534 1085.104736,57.299252 1081.727051,64.458099 
	C1077.220093,74.010056 1069.105957,78.750046 1058.760498,80.010780 
	C1051.474609,80.898643 1044.650024,80.409111 1039.654419,74.107819 
	C1038.481201,72.627975 1037.654053,70.873695 1036.484863,68.943825 
	C1039.013062,67.611717 1040.960449,66.417259 1043.035767,65.518959 
	C1059.054443,58.585396 1055.258423,37.239632 1045.342896,29.734978 
	C1034.834961,21.781784 1022.860474,19.846491 1009.864014,21.797787 
	C1000.046326,23.271832 991.189087,25.634800 983.834412,33.148148 
	C971.454468,45.795269 971.014771,66.460693 983.700134,78.673508 
	C994.720032,89.282867 1008.079956,95.607544 1021.438354,102.322815 
	C1038.301514,110.800018 1055.386841,119.078110 1071.281616,129.166748 
	C1085.496948,138.189377 1093.211426,152.321564 1095.136475,169.496643 
	C1096.083618,177.946518 1096.397583,186.138229 1094.081055,194.390793 
	C1090.878784,205.799179 1084.795410,215.244156 1075.875000,223.038589 
	C1065.865112,231.785110 1053.920044,237.128235 1041.474487,240.386658 
	C1028.484619,243.787567 1014.960876,245.549408 1001.315857,243.046387 
	C992.463135,241.422424 983.307495,241.091095 974.660278,238.783783 
	C959.454041,234.726364 946.561218,226.586914 940.398132,211.415649 
	C935.430298,199.186569 934.017456,186.424255 942.690369,174.735718 
	C947.332458,168.479401 953.758057,164.775024 961.399719,164.162918 
	C966.593201,163.746933 972.055969,164.150620 977.094604,165.406265 
	C979.651428,166.043427 982.003540,169.083694 983.570190,171.587021 
	C984.720337,173.424606 984.388123,175.637161 981.415771,177.131699 
	C975.356262,180.178452 972.408569,185.571533 971.977051,192.414673 
	C971.124512,205.935425 976.151672,216.639999 987.572571,223.855957 
	C991.202148,226.149246 995.656128,227.552078 999.922302,228.351730 
	C1018.097961,231.758621 1035.327637,229.323547 1049.103394,216.163681 
	C1066.333740,199.703583 1064.774536,172.195129 1046.050903,158.089096 
	C1035.730835,150.314194 1024.150757,145.396729 1012.689758,140.095428 
	C996.410278,132.565292 979.491211,126.287621 965.212097,115.020187 
	C953.923096,106.112091 944.846375,95.421585 942.493713,80.810371 
	C938.018188,53.015305 945.033752,25.840118 978.329346,13.199047 
	C986.207031,10.208186 994.792664,9.082143 1003.927002,7.072117 
	C1013.480469,6.998376 1022.159668,6.950797 1030.838867,6.903216 
z"/>
<path fill="#AAAD42" opacity="1.000000" stroke="none" 
	d="
M1134.036987,403.994293 
	C1133.946655,400.889923 1133.856323,397.785553 1133.938232,394.320099 
	C1163.765625,393.973206 1193.421021,393.999268 1223.076416,393.999664 
	C1472.316284,394.002930 1721.556274,394.001526 1970.796143,394.001526 
	C1971.629150,394.001526 1972.462280,394.001373 1973.295288,394.001709 
	C1982.705444,394.005646 1982.705444,394.005646 1980.892822,403.710541 
	C1698.113525,404.007050 1416.075317,404.000671 1134.036987,403.994293 
z"/>
<path fill="#AAAD42" opacity="1.000000" stroke="none" 
	d="
M833.461914,393.946442 
	C834.149902,397.099701 834.375061,400.277527 833.845093,403.730133 
	C562.363586,404.010956 291.637207,404.017029 20.910839,404.023132 
	C20.620604,401.772247 19.898575,399.459381 20.209337,397.294769 
	C20.383265,396.083313 22.112820,394.522919 23.420233,394.178680 
	C25.448565,393.644653 27.714968,394.003265 29.880444,394.003265 
	C294.921326,394.001526 559.962158,394.001709 825.003052,394.000336 
	C827.668396,394.000305 830.333740,393.981232 833.461914,393.946442 
z"/>
<path fill="#BFBF3F" opacity="1.000000" stroke="none" 
	d="
M1134.040039,404.248596 
	C1416.075317,404.000671 1698.113525,404.007050 1980.620605,404.018250 
	C1978.863647,404.348663 1976.638062,404.959229 1974.412354,404.959564 
	C1694.628540,405.001587 1414.844849,404.998688 1134.613892,404.997131 
	C1134.125610,404.831818 1134.084351,404.667358 1134.040039,404.248596 
z"/>
<path fill="#BFBF3F" opacity="1.000000" stroke="none" 
	d="
M21.186661,404.335785 
	C291.637207,404.017029 562.363586,404.010956 833.553894,404.007080 
	C834.000488,404.176208 833.983154,404.343140 833.899048,404.753021 
	C565.029114,404.997284 296.225983,404.999359 27.422846,404.985443 
	C25.436052,404.985321 23.449268,404.765594 21.186661,404.335785 
z"/>
<path fill="#FC4B9F" opacity="1.000000" stroke="none" 
	d="
M1189.888184,198.219238 
	C1189.575439,196.696716 1189.094482,194.738281 1189.088257,192.778320 
	C1189.029907,174.471985 1189.173950,156.164032 1188.967163,137.859848 
	C1188.916138,133.344162 1190.249146,131.856842 1194.886108,131.881149 
	C1228.336304,132.056396 1261.787598,131.984375 1295.238647,131.960220 
	C1298.377930,131.957962 1301.110352,131.715729 1301.068481,136.397186 
	C1300.882935,157.198334 1300.968628,178.001846 1300.927490,198.804459 
	C1300.925537,199.788254 1300.650879,200.771530 1300.334229,202.078400 
	C1300.165161,179.459366 1300.165161,156.516953 1300.165161,133.291321 
	C1263.161621,133.291321 1226.922729,133.291321 1189.939941,133.291321 
	C1189.939941,154.917160 1189.939941,176.349899 1189.888184,198.219238 
z"/>
<path fill="#FC4CA8" opacity="1.000000" stroke="none" 
	d="
M537.899048,211.567169 
	C537.532776,210.283752 536.973877,208.533661 536.974304,206.783707 
	C536.986389,157.060989 537.050171,107.338287 537.131897,57.615623 
	C537.134888,55.798790 537.403015,53.982391 537.691345,51.827129 
	C537.893066,90.393608 537.960327,129.298737 538.004150,168.203888 
	C538.020264,182.502731 537.981140,196.801651 537.899048,211.567169 
z"/>
<path fill="#FB4DB2" opacity="1.000000" stroke="none" 
	d="
M1335.882202,202.156052 
	C1335.561279,200.467697 1335.049683,198.343994 1335.047607,196.219803 
	C1335.000488,148.727890 1335.003906,101.235924 1335.026978,53.743973 
	C1335.027954,51.755905 1335.311523,49.767971 1335.650879,47.415878 
	C1335.892822,81.976562 1335.962891,116.901329 1335.994873,151.826126 
	C1336.010132,168.457550 1335.953003,185.089035 1335.882202,202.156052 
z"/>
<path fill="#FB4EA4" opacity="1.000000" stroke="none" 
	d="
M1154.109619,47.321381 
	C1154.437134,48.798534 1154.952271,50.755650 1154.954102,52.713234 
	C1154.997803,100.851822 1154.991699,148.990463 1154.966553,197.129074 
	C1154.965698,198.780945 1154.676025,200.432663 1154.341431,202.437363 
	C1154.107788,174.126556 1154.029541,145.462830 1154.007080,116.799072 
	C1153.989136,93.799927 1154.038696,70.800735 1154.109619,47.321381 
z"/>
<path fill="#FB4FA8" opacity="1.000000" stroke="none" 
	d="
M273.885956,201.050629 
	C273.559479,199.186127 273.042603,196.896271 273.040283,194.605911 
	C272.992859,148.029678 272.998322,101.453384 273.025024,54.877113 
	C273.026154,52.894119 273.333435,50.911297 273.666931,48.571587 
	C273.890869,79.529030 273.965912,110.843269 273.993774,142.157532 
	C274.011139,161.646667 273.957123,181.135864 273.885956,201.050629 
z"/>
<path fill="#FC468D" opacity="1.000000" stroke="none" 
	d="
M236.972778,56.052475 
	C237.288895,55.830719 238.615967,55.710106 238.637772,55.828968 
	C238.875443,57.124409 238.986298,58.457306 238.986618,59.780045 
	C238.997513,104.716660 238.998459,149.653275 238.968765,194.589874 
	C238.967575,196.404984 238.655106,198.219894 238.327087,200.389206 
	C238.110947,170.160736 238.046112,139.577972 238.003693,108.995163 
	C237.981796,93.203804 238.019455,77.412331 237.972275,61.621082 
	C237.966934,59.835083 237.584946,58.050209 236.972778,56.052475 
z"/>
<path fill="#FC4BA9" opacity="1.000000" stroke="none" 
	d="
M627.393860,75.413757 
	C627.777527,76.905426 628.033264,78.723457 628.031982,80.541313 
	C628.005127,118.292305 627.957397,156.043289 627.878662,193.794189 
	C627.873779,196.111908 627.578064,198.429001 627.294678,201.087006 
	C627.163208,159.531769 627.154663,117.635902 627.393860,75.413757 
z"/>
<path fill="#FD4474" opacity="1.000000" stroke="none" 
	d="
M1299.566650,116.989395 
	C1298.280396,117.320053 1296.523315,117.947578 1294.765137,117.950645 
	C1261.533447,118.008659 1228.301514,117.999756 1195.069702,117.969620 
	C1193.594849,117.968277 1192.120361,117.633240 1190.301880,117.212799 
	C1226.337280,116.979828 1262.716309,116.987686 1299.566650,116.989395 
z"/>
<path fill="#FC4786" opacity="1.000000" stroke="none" 
	d="
M69.902191,155.828430 
	C69.611061,147.567825 69.222122,138.923553 69.163330,130.277054 
	C69.002625,106.644264 68.949959,83.010468 68.989441,59.377300 
	C68.991585,58.095612 70.226051,56.815975 70.932533,55.836060 
	C70.654083,58.000504 70.051788,59.863605 70.047310,61.728138 
	C69.972298,92.966576 69.971947,124.205185 69.902191,155.828430 
z"/>
<path fill="#FC4BAD" opacity="1.000000" stroke="none" 
	d="
M644.165283,151.953598 
	C644.098206,120.995522 644.011597,90.037422 644.038086,59.079426 
	C644.039124,57.884857 645.127747,56.691227 645.770996,55.746021 
	C645.561157,57.905396 645.058411,59.815342 645.053711,61.726505 
	C644.980713,91.508041 644.972168,121.289726 644.724121,151.524811 
	C644.499451,151.978226 644.165283,151.953598 644.165283,151.953598 
z"/>
<path fill="#FC4A9B" opacity="1.000000" stroke="none" 
	d="
M367.105652,46.200378 
	C367.455688,48.161289 368.005524,50.613079 368.006256,53.065037 
	C368.013916,78.705025 367.933533,104.345039 367.693420,130.488434 
	C367.509338,130.991837 367.166840,131.072723 367.166840,131.072723 
	C367.128082,102.945595 367.089325,74.818459 367.105652,46.200378 
z"/>
<path fill="#FC4A9B" opacity="1.000000" stroke="none" 
	d="
M797.303772,233.653290 
	C796.981995,206.223862 797.046631,178.613113 797.299500,150.498474 
	C797.487732,149.994614 797.831543,149.913498 797.831543,149.913498 
	C797.784424,177.766312 797.737305,205.619141 797.303772,233.653290 
z"/>
<path fill="#FD457D" opacity="1.000000" stroke="none" 
	d="
M383.902527,129.086868 
	C383.582520,119.728981 383.200653,109.958679 383.085419,100.185234 
	C382.925110,86.587761 382.907227,72.987511 383.007477,59.389771 
	C383.017456,58.038628 384.268646,56.696625 384.963257,55.647202 
	C384.654938,57.811245 384.048492,59.677479 384.041870,61.545830 
	C383.962891,83.921387 383.972900,106.297264 383.902527,129.086868 
z"/>
<path fill="#FC4AB0" opacity="1.000000" stroke="none" 
	d="
M520.841125,94.042938 
	C520.836975,119.027473 520.832886,144.012009 520.724365,169.448425 
	C520.408691,168.628784 520.014404,167.357361 520.013550,166.085693 
	C519.997803,142.362335 520.028809,118.638969 520.276611,94.464172 
	C520.503174,94.012749 520.841125,94.042938 520.841125,94.042938 
z"/>
<path fill="#FC4680" opacity="1.000000" stroke="none" 
	d="
M781.098694,106.853775 
	C781.428955,117.083641 781.797546,127.732948 781.949585,138.385361 
	C782.104126,149.214874 782.108887,160.048035 782.005554,170.877930 
	C781.991394,172.358154 780.972412,173.828796 780.201294,175.051636 
	C780.321838,173.111526 780.947266,171.424820 780.953918,169.735687 
	C781.035828,148.915527 781.027222,128.095001 781.098694,106.853775 
z"/>
<path fill="#FC49A0" opacity="1.000000" stroke="none" 
	d="
M1300.112549,47.701241 
	C1300.431641,48.711674 1300.925903,50.166656 1300.929810,51.622952 
	C1300.985474,72.422791 1300.979492,93.222801 1300.963501,114.022758 
	C1300.962891,114.838570 1300.713379,115.654190 1300.263916,116.758575 
	C1299.985229,94.080292 1300.022461,71.113342 1300.112549,47.701241 
z"/>
<path fill="#FD446E" opacity="1.000000" stroke="none" 
	d="
M797.890869,149.457336 
	C797.831543,149.913498 797.487732,149.994614 797.315796,150.034805 
	C797.311646,127.382103 797.479553,104.689201 797.744690,81.629761 
	C797.877991,103.842537 797.914124,126.421867 797.890869,149.457336 
z"/>
<path fill="#FC4B9D" opacity="1.000000" stroke="none" 
	d="
M1286.713257,236.894897 
	C1290.665649,236.569916 1294.947144,236.030807 1299.225830,236.051239 
	C1316.756104,236.134872 1334.285522,236.389114 1352.152832,236.710190 
	C1330.673950,236.872543 1308.857544,236.905289 1286.713257,236.894897 
z"/>
<path fill="#FC4A9B" opacity="1.000000" stroke="none" 
	d="
M1137.987549,236.887573 
	C1138.209351,236.654648 1138.844482,236.312210 1139.478271,236.314636 
	C1160.487427,236.395493 1181.496338,236.509277 1202.805786,236.730988 
	C1181.537476,236.875427 1159.968872,236.907120 1137.987549,236.887573 
z"/>
<path fill="#FC4B9D" opacity="1.000000" stroke="none" 
	d="
M225.333832,236.891571 
	C228.254471,236.573853 231.552002,236.056183 234.846603,236.074066 
	C253.098572,236.173019 271.349823,236.402252 289.910095,236.714996 
	C268.715698,236.875031 247.212540,236.906952 225.333832,236.891571 
z"/>
<path fill="#FC4A93" opacity="1.000000" stroke="none" 
	d="
M1190.032349,116.572525 
	C1189.705566,115.814232 1189.062988,114.585213 1189.059448,113.354370 
	C1189.003784,93.765907 1189.023438,74.177193 1189.056396,54.588577 
	C1189.058105,53.607216 1189.336914,52.626320 1189.662354,51.256859 
	C1189.896484,72.612663 1189.955200,94.356812 1190.032349,116.572525 
z"/>
<path fill="#FB4DB2" opacity="1.000000" stroke="none" 
	d="
M384.881348,201.616287 
	C384.609833,201.131714 384.189240,200.172440 384.188843,199.213013 
	C384.181152,180.334137 384.222290,161.455246 384.542389,142.266373 
	C384.863495,161.684769 384.895721,181.413132 384.881348,201.616287 
z"/>
<path fill="#FC4995" opacity="1.000000" stroke="none" 
	d="
M53.110939,46.963562 
	C53.455528,48.812595 53.986897,51.084606 53.990810,53.357529 
	C54.019325,69.906250 53.941708,86.455154 53.705383,103.503845 
	C53.513138,104.003677 53.167072,104.075699 53.167072,104.075699 
	C53.129219,85.179459 53.091370,66.283211 53.110939,46.963562 
z"/>
<path fill="#FD446E" opacity="1.000000" stroke="none" 
	d="
M53.107346,104.533005 
	C53.167072,104.075699 53.513138,104.003677 53.686188,103.967873 
	C53.685768,120.917244 53.512295,137.902420 53.247147,155.237946 
	C53.119518,138.722290 53.083572,121.856300 53.107346,104.533005 
z"/>
<path fill="#FD48B0" opacity="1.000000" stroke="none" 
	d="
M780.115356,45.896179 
	C780.423645,47.243320 780.914917,49.021854 780.917542,50.801105 
	C780.939697,65.866814 780.872742,80.932640 780.728394,96.450592 
	C780.411865,94.803162 780.019775,92.703903 780.016052,90.603943 
	C779.989807,75.845345 780.043640,61.086605 780.115356,45.896179 
z"/>
<path fill="#FC4A9B" opacity="1.000000" stroke="none" 
	d="
M37.279926,236.891159 
	C43.188259,236.544708 49.481346,235.998611 55.773640,236.007599 
	C65.579376,236.021606 75.384567,236.412399 85.452034,236.746277 
	C69.697495,236.879471 53.680912,236.909912 37.279926,236.891159 
z"/>
<path fill="#FD446A" opacity="1.000000" stroke="none" 
	d="
M367.108093,131.530426 
	C367.166840,131.072723 367.509338,130.991837 367.680542,130.951340 
	C367.692596,147.304031 367.533417,163.697205 367.267365,180.467865 
	C367.123444,164.559616 367.086395,148.273865 367.108093,131.530426 
z"/>
<path fill="#FC4A98" opacity="1.000000" stroke="none" 
	d="
M613.209717,236.893143 
	C621.900024,236.542328 630.978271,236.076584 640.059998,235.997513 
	C646.503235,235.941437 652.951050,236.407455 659.688354,236.742035 
	C644.519653,236.876907 629.059448,236.910233 613.209717,236.893143 
z"/>
<path fill="#FC4A98" opacity="1.000000" stroke="none" 
	d="
M352.302063,236.892700 
	C367.466125,236.755463 383.012543,236.666946 398.861755,236.710434 
	C383.671173,236.875427 368.177795,236.908417 352.302063,236.892700 
z"/>
<path fill="#FC498F" opacity="1.000000" stroke="none" 
	d="
M644.100586,152.421509 
	C644.165283,151.953598 644.499451,151.978226 644.666504,151.990540 
	C644.872375,166.921463 644.911133,181.840057 644.894409,197.189590 
	C644.565857,193.839096 644.091858,190.059479 644.057617,186.275879 
	C643.956787,175.147919 644.030457,164.018341 644.100586,152.421509 
z"/>
<path fill="#FC4A93" opacity="1.000000" stroke="none" 
	d="
M520.905029,93.575150 
	C520.841125,94.042938 520.503174,94.012749 520.334229,93.997513 
	C520.127930,79.327545 520.090576,64.672821 520.106140,49.563103 
	C520.440552,56.013653 520.849121,62.916973 520.969666,69.825317 
	C521.105103,77.583626 520.980469,85.346481 520.905029,93.575150 
z"/>
<path fill="#FD48B0" opacity="1.000000" stroke="none" 
	d="
M52.508457,163.234558 
	C52.732777,176.667679 52.629803,190.377213 52.347122,204.440521 
	C52.171997,191.033188 52.176582,177.272079 52.508457,163.234558 
z"/>
<path fill="#FD4471" opacity="1.000000" stroke="none" 
	d="
M1336.213867,13.097308 
	C1323.774414,13.241115 1310.901245,13.323500 1297.667480,13.283049 
	C1310.131348,13.118771 1322.955811,13.077329 1336.213867,13.097308 
z"/>
<path fill="#FD4471" opacity="1.000000" stroke="none" 
	d="
M1192.258057,13.098307 
	C1179.820679,13.244317 1166.944824,13.328579 1153.714233,13.285831 
	C1166.179443,13.118067 1178.999634,13.077312 1192.258057,13.098307 
z"/>
<path fill="#FD48B0" opacity="1.000000" stroke="none" 
	d="
M70.877579,202.949432 
	C70.619537,191.245560 70.407829,179.126205 70.285309,166.551819 
	C70.582207,173.461349 70.847221,180.824860 70.977112,188.190765 
	C71.061378,192.970016 70.948463,197.752762 70.877579,202.949432 
z"/>
<path fill="#FC4786" opacity="1.000000" stroke="none" 
	d="
M273.162354,13.102392 
	C263.348480,13.446098 253.109360,13.739133 242.869873,14.018548 
	C240.884705,14.072718 238.898087,14.073749 236.443222,14.058302 
	C237.492188,13.678492 239.008209,13.056291 240.528259,13.046346 
	C251.264038,12.976101 262.000641,13.031595 273.162354,13.102392 
z"/>
<path fill="#FC498F" opacity="1.000000" stroke="none" 
	d="
M1393.582520,111.199387 
	C1393.976440,121.387337 1394.039185,131.852356 1394.092285,142.811447 
	C1393.726196,142.435837 1393.059937,141.566010 1393.060303,140.696487 
	C1393.064697,130.956421 1393.171875,121.216454 1393.582520,111.199387 
z"/>
<path fill="#FD4474" opacity="1.000000" stroke="none" 
	d="
M1940.381836,13.101483 
	C1931.190918,13.246781 1921.550781,13.332095 1911.537354,13.289469 
	C1920.753662,13.121519 1930.343140,13.081509 1940.381836,13.101483 
z"/>
<path fill="#FC4995" opacity="1.000000" stroke="none" 
	d="
M627.667542,11.735683 
	C618.186951,12.133669 608.543579,12.132865 598.431274,12.081526 
	C599.125366,11.686273 600.289307,11.041319 601.451416,11.044707 
	C610.136108,11.070019 618.820374,11.223543 627.667542,11.735683 
z"/>
<path fill="#FD4471" opacity="1.000000" stroke="none" 
	d="
M803.266785,13.098489 
	C794.471924,13.252127 785.237732,13.344359 775.643921,13.298384 
	C784.465332,13.119145 793.646362,13.078115 803.266785,13.098489 
z"/>
<path fill="#FC4995" opacity="1.000000" stroke="none" 
	d="
M366.836182,11.617825 
	C357.697083,11.980098 348.280487,12.007266 338.393677,11.975275 
	C341.312225,11.614307 344.698425,11.098276 348.090393,11.057424 
	C354.244720,10.983299 360.402435,11.192045 366.836182,11.617825 
z"/>
<path fill="#FC4995" opacity="1.000000" stroke="none" 
	d="
M52.632439,11.626427 
	C43.524181,11.998013 34.202000,12.007124 24.410435,11.959764 
	C27.643259,11.606042 31.342522,11.112450 35.048359,11.056828 
	C40.836071,10.969961 46.628235,11.179814 52.632439,11.626427 
z"/>
<path fill="#FD4474" opacity="1.000000" stroke="none" 
	d="
M542.428833,13.101273 
	C533.887512,13.259403 524.892456,13.356906 515.530457,13.308031 
	C524.100708,13.121318 533.037842,13.080981 542.428833,13.101273 
z"/>
<path fill="#FC49A0" opacity="1.000000" stroke="none" 
	d="
M1619.448730,135.580002 
	C1619.071167,127.155441 1619.017334,118.475014 1618.988037,109.315399 
	C1619.339600,112.199417 1619.879761,115.558464 1619.945190,118.926735 
	C1620.051392,124.389343 1619.846191,129.858017 1619.448730,135.580002 
z"/>
<path fill="#FC4A9B" opacity="1.000000" stroke="none" 
	d="
M1030.592529,6.570079 
	C1022.159668,6.950797 1013.480469,6.998376 1004.323181,7.013697 
	C1007.210510,6.656817 1010.571960,6.119503 1013.942322,6.055934 
	C1019.407227,5.952861 1024.878052,6.160487 1030.592529,6.570079 
z"/>
<path fill="#FC4A9B" opacity="1.000000" stroke="none" 
	d="
M1519.840942,6.619681 
	C1511.682251,6.982627 1503.245972,7.009792 1494.332275,7.007316 
	C1497.347534,6.655833 1500.836182,6.129222 1504.333984,6.060799 
	C1509.406982,5.961558 1514.486694,6.193319 1519.840942,6.619681 
z"/>
<path fill="#FC49A0" opacity="1.000000" stroke="none" 
	d="
M1218.815918,12.667578 
	C1211.018433,12.988635 1202.996826,12.934609 1194.520264,12.779709 
	C1202.240845,12.550055 1210.416260,12.421274 1218.815918,12.667578 
z"/>
<path fill="#FC4CA3" opacity="1.000000" stroke="none" 
	d="
M1363.634399,12.677263 
	C1355.851196,13.035798 1347.870483,13.020078 1339.421875,12.943611 
	C1347.114868,12.689579 1355.275879,12.496294 1363.634399,12.677263 
z"/>
<path fill="#FC4CA3" opacity="1.000000" stroke="none" 
	d="
M1150.774902,12.562274 
	C1143.004395,12.905373 1134.957764,12.919167 1126.442139,12.899014 
	C1134.148315,12.654367 1142.323486,12.443669 1150.774902,12.562274 
z"/>
<path fill="#FE42AD" opacity="1.000000" stroke="none" 
	d="
M798.598816,69.595963 
	C798.396240,61.990456 798.444824,54.059929 798.666504,45.794987 
	C798.843079,53.397362 798.846497,61.334152 798.598816,69.595963 
z"/>
<path fill="#FC4CA3" opacity="1.000000" stroke="none" 
	d="
M301.633606,12.676018 
	C293.850067,13.034728 285.868408,13.019718 277.418518,12.943445 
	C285.112030,12.688886 293.273804,12.495591 301.633606,12.676018 
z"/>
<path fill="#FC4CA3" opacity="1.000000" stroke="none" 
	d="
M1294.751953,12.562210 
	C1287.320801,12.962698 1279.609497,13.040710 1271.426758,13.084393 
	C1274.641357,12.700823 1278.321411,12.168788 1282.014648,12.050941 
	C1286.160645,11.918648 1290.318848,12.160604 1294.751953,12.562210 
z"/>
<path fill="#FC4B9F" opacity="1.000000" stroke="none" 
	d="
M1908.778076,12.572206 
	C1901.335083,12.969880 1893.616089,13.037856 1885.425537,13.075836 
	C1888.402344,12.697231 1891.844849,12.149203 1895.300293,12.050107 
	C1899.695312,11.924063 1904.100830,12.161677 1908.778076,12.572206 
z"/>
<path fill="#FC49A0" opacity="1.000000" stroke="none" 
	d="
M773.748291,12.508116 
	C766.988403,12.920549 759.943665,13.016936 752.427979,13.080045 
	C759.125793,12.761867 766.294678,12.476968 773.748291,12.508116 
z"/>
<path fill="#FD457D" opacity="1.000000" stroke="none" 
	d="
M1727.982178,237.418243 
	C1731.657227,237.672516 1735.340820,238.480545 1739.064819,238.998611 
	C1740.979248,239.264954 1742.965698,239.014191 1745.375977,238.979797 
	C1740.069824,239.190277 1734.307617,239.433075 1728.542725,239.569748 
	C1728.377930,239.573654 1728.186401,238.449890 1727.982178,237.418243 
z"/>
<path fill="#FC4995" opacity="1.000000" stroke="none" 
	d="
M1433.758301,33.747894 
	C1433.280151,34.418343 1432.492798,35.249332 1431.349243,36.063946 
	C1431.811646,35.334522 1432.630371,34.621475 1433.758301,33.747894 
z"/>
<path fill="#FD457D" opacity="1.000000" stroke="none" 
	d="
M1727.038086,233.607452 
	C1727.412964,234.291565 1727.767212,235.327255 1728.063232,236.702179 
	C1727.676025,236.013962 1727.346802,234.986496 1727.038086,233.607452 
z"/>
<path fill="#FC4786" opacity="1.000000" stroke="none" 
	d="
M235.711990,14.101473 
	C235.863693,14.807710 235.703613,15.640813 235.271515,16.653740 
	C235.133087,15.965157 235.266647,15.096747 235.711990,14.101473 
z"/>
<path fill="#FC49A0" opacity="1.000000" stroke="none" 
	d="
M1220.889160,16.472954 
	C1220.496094,16.060328 1220.158203,15.317070 1219.890625,14.265053 
	C1220.288818,14.684970 1220.616577,15.413649 1220.889160,16.472954 
z"/>
<path fill="#FC4995" opacity="1.000000" stroke="none" 
	d="
M1423.750732,43.072231 
	C1423.592896,43.692490 1423.136597,44.383129 1422.341797,45.055450 
	C1422.486450,44.405624 1422.969482,43.774120 1423.750732,43.072231 
z"/>
<path fill="#FC4B9F" opacity="1.000000" stroke="none" 
	d="
M1883.755615,14.071726 
	C1883.888184,14.695215 1883.727173,15.427427 1883.354980,16.358635 
	C1883.249878,15.765235 1883.355957,14.972842 1883.755615,14.071726 
z"/>
<path fill="#FC49A0" opacity="1.000000" stroke="none" 
	d="
M750.755798,14.073801 
	C750.860840,14.543353 750.670837,15.123406 750.186707,15.825058 
	C750.081970,15.359205 750.271362,14.771755 750.755798,14.073801 
z"/>
<path fill="#FC4995" opacity="1.000000" stroke="none" 
	d="
M1421.720947,45.107227 
	C1421.777222,45.598591 1421.512817,46.198555 1420.919922,46.926788 
	C1420.860962,46.441982 1421.130615,45.828903 1421.720947,45.107227 
z"/>
<path fill="#FC4CA3" opacity="1.000000" stroke="none" 
	d="
M1269.752686,14.079609 
	C1269.874756,14.561653 1269.697632,15.162167 1269.218994,15.891289 
	C1269.096191,15.412624 1269.274780,14.805351 1269.752686,14.079609 
z"/>
<path fill="#FC4995" opacity="1.000000" stroke="none" 
	d="
M597.772339,12.036426 
	C597.836548,12.264097 597.642883,12.558665 597.173584,12.898243 
	C597.103455,12.663276 597.308960,12.383299 597.772339,12.036426 
z"/>
<path fill="#FC4995" opacity="1.000000" stroke="none" 
	d="
M1430.774902,36.056843 
	C1430.885986,36.323994 1430.725708,36.650169 1430.276855,37.013504 
	C1430.159912,36.739063 1430.331665,36.427464 1430.774902,36.056843 
z"/>
<path fill="#FC4B9F" opacity="1.000000" stroke="none" 
	d="
M1884.781738,13.038931 
	C1884.882568,13.292549 1884.712524,13.621463 1884.255249,14.002343 
	C1884.149048,13.740949 1884.330078,13.427588 1884.781738,13.038931 
z"/>
<path fill="#FC4CA3" opacity="1.000000" stroke="none" 
	d="
M1268.914307,15.952915 
	C1268.922607,16.080009 1268.769043,16.166082 1268.472046,16.228683 
	C1268.462402,16.105078 1268.603760,16.007307 1268.914307,15.952915 
z"/>
<path fill="#FD457D" opacity="1.000000" stroke="none" 
	d="
M386.085968,57.249279 
	C386.319641,57.191788 386.610809,57.402386 386.952759,57.893860 
	C386.716797,57.955616 386.430145,57.736492 386.085968,57.249279 
z"/>
<path fill="#FC4995" opacity="1.000000" stroke="none" 
	d="
M1429.781982,37.055202 
	C1429.887451,37.313362 1429.724854,37.640217 1429.276123,38.009834 
	C1429.164429,37.743031 1429.339233,37.433464 1429.781982,37.055202 
z"/>
<path fill="#FC4995" opacity="1.000000" stroke="none" 
	d="
M1428.783569,38.056698 
	C1428.887329,38.314846 1428.722046,38.639584 1428.271362,39.008240 
	C1428.162109,38.742531 1428.338257,38.432911 1428.783569,38.056698 
z"/>
<path fill="#FC4995" opacity="1.000000" stroke="none" 
	d="
M1427.782959,39.054062 
	C1427.886108,39.310783 1427.719971,39.635586 1427.268799,40.006184 
	C1427.160522,39.742031 1427.337158,39.432091 1427.782959,39.054062 
z"/>
<path fill="#FC4995" opacity="1.000000" stroke="none" 
	d="
M1426.782715,40.052460 
	C1426.884644,40.308792 1426.717407,40.633762 1426.264893,41.004341 
	C1426.157593,40.740330 1426.335571,40.430714 1426.782715,40.052460 
z"/>
<path fill="#FC4995" opacity="1.000000" stroke="none" 
	d="
M1425.779663,41.047607 
	C1425.883179,41.306236 1425.715820,41.631733 1425.262939,42.002811 
	C1425.154419,41.737083 1425.331665,41.425777 1425.779663,41.047607 
z"/>
<path fill="#FC4995" opacity="1.000000" stroke="none" 
	d="
M1424.780029,42.044945 
	C1424.891968,42.308910 1424.735718,42.640507 1424.293213,43.009457 
	C1424.175171,42.735397 1424.343384,42.423988 1424.780029,42.044945 
z"/>
<path fill="#FC4CA3" opacity="1.000000" stroke="none" 
	d="
M1270.783691,13.039846 
	C1270.889526,13.303784 1270.722534,13.640102 1270.260376,14.015946 
	C1270.146973,13.741057 1270.328979,13.426641 1270.783691,13.039846 
z"/>
<path fill="#FC49A0" opacity="1.000000" stroke="none" 
	d="
M1219.965088,13.770393 
	C1219.704590,13.877860 1219.366211,13.719317 1218.993408,13.264688 
	C1219.268433,13.147195 1219.577881,13.325789 1219.965088,13.770393 
z"/>
<path fill="#FC49A0" opacity="1.000000" stroke="none" 
	d="
M751.779846,13.038556 
	C751.884338,13.298552 751.716797,13.631196 751.258057,14.008896 
	C751.147156,13.739701 751.327515,13.425453 751.779846,13.038556 
z"/>
<path fill="#FD457D" opacity="1.000000" stroke="none" 
	d="
M385.105072,56.264629 
	C385.357025,56.156052 385.654053,56.299828 385.986298,56.707726 
	C385.731079,56.820229 385.440582,56.668606 385.105072,56.264629 
z"/>
<path fill="#A7A840" opacity="1.000000" stroke="none" 
	d="
M932.000488,400.235840 
	C934.721680,400.865662 937.442932,401.495483 939.866882,402.056519 
	C936.628296,397.755890 932.407471,393.871521 930.440186,389.064850 
	C928.382690,384.037842 928.491943,378.124084 927.611511,372.317139 
	C940.791199,375.096863 946.497742,383.821167 948.592041,404.017273 
	C956.508057,405.105164 964.636353,406.222229 972.672302,407.326630 
	C968.381592,403.758514 963.244263,400.982422 960.376648,396.689972 
	C957.379761,392.204163 956.566528,386.259491 954.773926,380.878174 
	C961.245667,379.609344 969.851318,383.695099 973.400269,389.957428 
	C976.086243,394.696991 977.796814,399.980164 980.203064,404.893280 
	C980.869202,406.253235 982.432190,408.067261 983.648315,408.117767 
	C990.923401,408.419922 998.217407,408.267456 1005.978088,407.174286 
	C991.410400,404.872833 986.768188,394.240936 983.022705,382.397705 
	C990.678467,380.814301 997.062195,383.085175 1001.878723,388.345642 
	C1005.977966,392.822723 1008.981140,398.292694 1012.605408,403.223267 
	C1013.444946,404.365479 1015.027283,406.051910 1015.948120,405.869904 
	C1022.697266,404.536407 1029.365112,402.791107 1037.346436,400.864777 
	C1020.962769,395.056946 1014.466064,389.797180 1011.034851,379.974976 
	C1018.851318,377.451385 1026.217407,378.252808 1032.621582,383.286865 
	C1036.607056,386.419769 1040.246216,390.194550 1043.301392,394.239685 
	C1045.362793,396.969055 1046.873047,397.436310 1049.788086,395.990295 
	C1054.799927,393.504150 1059.973022,391.343109 1065.213379,388.374847 
	C1052.666138,389.154114 1045.209106,381.666321 1038.156738,373.181335 
	C1049.649048,366.748169 1061.478760,368.627075 1071.560059,379.195343 
	C1075.244385,383.057770 1078.040405,383.311279 1082.041382,380.450531 
	C1085.800537,377.762695 1089.762939,375.358704 1094.706665,373.511871 
	C1093.490723,375.302551 1092.648804,377.639282 1090.986206,378.777924 
	C1086.613770,381.772614 1081.716309,384.007751 1077.387939,387.056641 
	C1075.877686,388.120483 1074.802856,390.617004 1074.605225,392.568237 
	C1074.122925,397.331573 1074.495728,402.176697 1074.114136,406.956146 
	C1073.373901,416.226837 1067.815430,421.961456 1059.170044,426.027191 
	C1057.706055,414.835175 1053.792480,403.784668 1063.608154,394.077698 
	C1057.167236,396.557800 1050.633667,398.834839 1044.364868,401.692535 
	C1043.137817,402.251892 1042.795410,405.021820 1042.288696,406.840088 
	C1040.780762,412.251801 1040.039795,417.983063 1037.794556,423.056427 
	C1035.066406,429.221344 1029.518677,432.817474 1022.378113,435.244232 
	C1021.425293,424.091339 1021.140747,413.753143 1031.215942,405.580933 
	C1024.532593,406.908325 1017.832397,408.160950 1011.188782,409.663696 
	C1010.412659,409.839294 1009.847229,411.345184 1009.356995,412.321167 
	C1006.314819,418.377289 1004.296265,425.301697 1000.001953,430.261688 
	C996.620911,434.166748 990.454224,435.660004 984.320435,438.851227 
	C984.780212,426.553864 988.688965,417.733978 998.120300,410.352203 
	C993.996643,410.352203 989.808838,410.813080 985.763794,410.249451 
	C978.852478,409.286377 975.426025,412.027588 972.920227,418.493744 
	C968.527588,429.828888 958.453613,435.509064 947.320679,433.785919 
	C949.797546,422.779053 954.616028,413.939117 966.358521,409.375549 
	C959.316956,408.274414 952.287354,407.077698 945.218689,406.192841 
	C944.332764,406.081940 943.069824,407.474182 942.280029,408.419434 
	C940.682312,410.331665 939.387878,412.496979 937.795288,414.414032 
	C930.178040,423.583344 924.642151,425.594055 912.362488,423.784943 
	C913.686707,413.831635 921.321899,407.696106 937.594910,404.288757 
	C935.294800,403.267761 933.944946,402.668579 932.299561,401.665924 
	C932.002808,400.920227 932.001648,400.578033 932.000488,400.235840 
M1065.541260,393.519592 
	C1065.541260,393.519592 1065.355103,393.410400 1065.355103,393.410400 
	C1065.355103,393.410400 1065.378540,393.619293 1065.541260,393.519592 
z"/>
<path fill="#A6A740" opacity="1.000000" stroke="none" 
	d="
M931.651306,400.092834 
	C932.001648,400.578033 932.002808,400.920227 932.003784,401.519043 
	C927.291382,400.184479 922.512756,398.762085 917.889832,396.943909 
	C914.695190,395.687531 912.349854,395.832306 910.039490,398.714294 
	C908.193726,401.016632 905.799683,402.927094 903.466858,404.782562 
	C895.422363,411.180847 889.267212,411.855408 879.372559,407.574951 
	C885.193054,397.392426 892.987915,390.808411 906.532288,393.721924 
	C905.391968,391.959167 904.910339,391.214691 903.994080,389.798340 
	C906.692566,390.792450 908.770264,391.557892 911.425537,392.560181 
	C912.271667,392.745148 912.540222,392.693237 912.808838,392.641357 
	C912.640442,392.326782 912.471985,392.012207 912.303589,391.697632 
	C910.879944,390.318237 909.454529,388.940674 908.033081,387.559082 
	C903.607117,383.257324 901.362732,378.193176 902.288635,371.889374 
	C902.789612,368.478271 903.013489,365.026489 903.429565,360.931000 
	C911.529724,364.154175 916.104736,369.875641 917.727539,377.710083 
	C918.585449,381.851776 918.549316,386.298523 918.165405,390.539490 
	C917.860718,393.903961 918.445068,395.859894 921.878235,396.789673 
	C925.070679,397.654236 928.164734,398.881989 931.651306,400.092834 
z"/>
<path fill="#A7A840" opacity="1.000000" stroke="none" 
	d="
M898.886780,388.147217 
	C887.097839,388.802368 878.881042,383.817780 874.481934,372.737579 
	C882.893372,370.363678 892.257019,374.257660 896.320435,381.823486 
	C897.257568,383.568359 898.063782,385.383606 898.971436,387.579742 
	C899.012573,387.993042 898.886780,388.147217 898.886780,388.147217 
z"/>
<path fill="#A6A740" opacity="1.000000" stroke="none" 
	d="
M900.994873,389.006409 
	C901.468018,389.173950 901.941101,389.341492 902.414246,389.509033 
	C902.014221,389.512360 901.614136,389.515656 901.107056,389.259521 
	C901.000000,389.000092 900.994873,389.006409 900.994873,389.006409 
z"/>
<path fill="#A6A740" opacity="1.000000" stroke="none" 
	d="
M901.001221,388.998718 
	C900.414124,388.880859 899.825806,388.764404 899.062134,388.397583 
	C898.886780,388.147217 899.012573,387.993042 899.078674,387.916840 
	C899.716431,388.028900 900.288086,388.217163 900.927307,388.705933 
	C900.994873,389.006409 901.000000,389.000092 901.001221,388.998718 
z"/>
<path fill="#4C6971" opacity="1.000000" stroke="none" 
	d="
M1577.170654,135.413544 
	C1576.447632,139.893845 1575.724487,144.374146 1575.001465,148.854462 
	C1572.080811,166.953156 1567.569946,184.498047 1557.037842,199.912552 
	C1548.725342,212.078537 1538.312256,221.870743 1523.721924,225.540787 
	C1503.318970,230.672974 1483.649048,229.118225 1466.954956,214.840439 
	C1456.285034,205.714874 1448.633301,194.322159 1443.699585,180.880539 
	C1438.855591,167.683640 1435.436279,154.367233 1434.953735,139.423798 
	C1434.911377,130.100479 1434.873291,121.672768 1434.835083,113.245056 
	C1435.052368,96.913269 1438.778198,81.147568 1444.680054,66.167503 
	C1450.484985,51.433167 1459.695923,38.467560 1473.581909,30.101904 
	C1486.064819,22.581465 1499.933594,20.670279 1514.451050,22.643658 
	C1525.975464,24.210194 1536.407715,27.901638 1545.335815,35.553123 
	C1556.118774,44.794132 1563.160156,56.457970 1568.042603,69.624329 
	C1572.635620,82.010117 1575.344727,94.794220 1576.804199,108.670517 
	C1577.093506,118.083977 1577.132080,126.748764 1577.170654,135.413544 
z"/>
<path fill="#FC498F" opacity="1.000000" stroke="none" 
	d="
M1577.307129,135.076431 
	C1577.132080,126.748764 1577.093506,118.083977 1577.112793,109.002647 
	C1577.261719,117.303841 1577.352661,126.021576 1577.307129,135.076431 
z"/>
<path fill="#FC498F" opacity="1.000000" stroke="none" 
	d="
M1434.686035,113.604889 
	C1434.873291,121.672768 1434.911377,130.100479 1434.895996,138.932953 
	C1434.740723,130.880051 1434.638916,122.422386 1434.686035,113.604889 
z"/>
<path fill="#480F0E" opacity="1.000000" stroke="none" 
	d="
M1065.459961,393.569458 
	C1065.378540,393.619293 1065.355103,393.410400 1065.355103,393.410400 
	C1065.355103,393.410400 1065.541260,393.519592 1065.459961,393.569458 
z"/>
<path fill="#480F0E" opacity="1.000000" stroke="none" 
	d="
M912.106506,391.906555 
	C912.471985,392.012207 912.640442,392.326782 912.808838,392.641357 
	C912.540222,392.693237 912.271667,392.745148 911.761230,392.667114 
	C911.649414,392.396637 911.779419,392.256073 912.106506,391.906555 
z"/>
</svg>